<svg width="203" height="71" viewBox="0 0 203 71" fill="none" xmlns="http://www.w3.org/2000/svg">
<path d="M8.5 23.2308C8.5 15.0952 15.0952 8.5 23.2308 8.5H47.7692C55.9048 8.5 62.5 15.0952 62.5 23.2308V47.7692C62.5 55.9048 55.9048 62.5 47.7692 62.5H23.2308C15.0952 62.5 8.5 55.9048 8.5 47.7692V23.2308Z" fill="#3156A0" stroke="white"/>
<path d="M35.4124 16L54.5 20.0773C52.5737 39.0455 49.3475 49.8 35.4124 55C20.7028 49.15 18.4263 39.0455 16.5 20.0773L35.4124 16ZM35.0169 53.375C21.8833 45.7523 20.0424 38.2625 18.9153 22.2045H18.3357C19.9118 38.5136 20.4824 45.575 35.0169 53.375Z" fill="white"/>
<path fill-rule="evenodd" clip-rule="evenodd" d="M40.9334 25.425C42.5367 25.425 43.5205 27.7737 44.1764 29.0413L45.0145 28.4821C45.4517 28.2211 45.9983 28.333 46.2898 28.7804C46.6177 29.0786 46.3991 29.787 45.9983 30.0479L45.1238 30.6072C45.5246 31.0173 46.1076 31.8375 46.1076 33.6643C46.144 35.6775 46.144 37.6907 46.144 39.7039C46.144 40.0767 45.8525 40.375 45.4882 40.375H42.5731C42.2087 40.375 41.9172 40.0767 41.9172 39.7039C41.9172 39.4429 41.9172 39.182 41.9172 38.8837H29.3826C29.3826 39.182 29.3826 39.4429 29.3826 39.7039C29.3826 40.0767 29.0911 40.375 28.7267 40.375H25.8116C25.4473 40.375 25.1558 40.0767 25.1558 39.7039C25.1558 37.6907 25.1558 35.6775 25.1558 33.6643C25.1922 31.8375 25.7752 31.0173 26.1396 30.6072L25.2651 30.0479C24.8643 29.787 24.7549 29.1904 25.01 28.7804C25.3744 28.4075 25.7388 28.1466 26.2489 28.4821L27.1234 29.0413C27.7793 27.7737 28.7631 25.425 30.3664 25.425H40.9334ZM37.9091 37.3924C38.0912 37.3924 38.237 37.2806 38.237 37.0942V35.9757C38.237 35.8266 38.0912 35.6775 37.9091 35.6775H33.3907C33.2086 35.6775 33.0628 35.8266 33.0628 35.9757V37.0942C33.0628 37.2806 33.2086 37.3924 33.3907 37.3924H37.9091ZM42.8646 29.1904C42.4638 28.4075 42.0994 27.5873 41.6986 26.8044H29.6012C29.2004 27.5873 28.7996 28.4075 28.4352 29.1904C33.1721 30.0106 38.1277 30.0106 42.8646 29.1904ZM26.504 34.0371C27.8522 34.2981 29.1639 34.4845 30.4393 34.7827C30.7672 34.9318 30.9858 35.2301 31.168 35.5656C31.2409 35.7148 31.2409 35.9385 31.2045 36.1621C29.9291 35.9757 28.6902 35.752 27.4514 35.5284C27.0505 35.3792 26.7226 35.081 26.504 34.6709C26.4675 34.3726 26.4675 34.1489 26.504 34.0371ZM44.7594 34.0371C43.4476 34.2981 42.1359 34.4845 40.8241 34.7827C40.5326 34.9318 40.2775 35.2301 40.0953 35.5656C40.0589 35.7148 40.0589 35.9385 40.0953 36.1621C41.3342 35.9757 42.6096 35.752 43.8485 35.5284C44.2493 35.3792 44.5772 35.081 44.7958 34.6709C44.8323 34.3726 44.8323 34.1489 44.7594 34.0371Z" fill="#1F4D9C"/>
<path d="M74.9805 43.5V26.4375H80.5586C82.4102 26.4375 83.8008 26.8203 84.7305 27.5859C85.668 28.3516 86.1367 29.4844 86.1367 30.9844C86.1367 31.7812 85.9102 32.4883 85.457 33.1055C85.0039 33.7148 84.3867 34.1875 83.6055 34.5234C84.5273 34.7812 85.2539 35.2734 85.7852 36C86.3242 36.7188 86.5938 37.5781 86.5938 38.5781C86.5938 40.1094 86.0977 41.3125 85.1055 42.1875C84.1133 43.0625 82.7109 43.5 80.8984 43.5H74.9805ZM77.2305 35.5195V41.6602H80.9453C81.9922 41.6602 82.8164 41.3906 83.418 40.8516C84.0273 40.3047 84.332 39.5547 84.332 38.6016C84.332 36.5469 83.2148 35.5195 80.9805 35.5195H77.2305ZM77.2305 33.7148H80.6289C81.6133 33.7148 82.3984 33.4688 82.9844 32.9766C83.5781 32.4844 83.875 31.8164 83.875 30.9727C83.875 30.0352 83.6016 29.3555 83.0547 28.9336C82.5078 28.5039 81.6758 28.2891 80.5586 28.2891H77.2305V33.7148ZM97.3819 43.5C97.2569 43.25 97.1553 42.8047 97.0772 42.1641C96.0694 43.2109 94.8663 43.7344 93.4678 43.7344C92.2178 43.7344 91.1905 43.3828 90.3858 42.6797C89.5889 41.9688 89.1905 41.0703 89.1905 39.9844C89.1905 38.6641 89.6905 37.6406 90.6905 36.9141C91.6983 36.1797 93.1123 35.8125 94.9327 35.8125H97.042V34.8164C97.042 34.0586 96.8155 33.457 96.3623 33.0117C95.9092 32.5586 95.2413 32.332 94.3584 32.332C93.585 32.332 92.9366 32.5273 92.4131 32.918C91.8897 33.3086 91.628 33.7812 91.628 34.3359H89.4483C89.4483 33.7031 89.6709 33.0938 90.1163 32.5078C90.5694 31.9141 91.1788 31.4453 91.9444 31.1016C92.7178 30.7578 93.5655 30.5859 94.4873 30.5859C95.9483 30.5859 97.0928 30.9531 97.9209 31.6875C98.7491 32.4141 99.1788 33.418 99.21 34.6992V40.5352C99.21 41.6992 99.3584 42.625 99.6553 43.3125V43.5H97.3819ZM93.7842 41.8477C94.4639 41.8477 95.1084 41.6719 95.7178 41.3203C96.3272 40.9688 96.7686 40.5117 97.042 39.9492V37.3477H95.3428C92.6866 37.3477 91.3584 38.125 91.3584 39.6797C91.3584 40.3594 91.585 40.8906 92.0381 41.2734C92.4913 41.6562 93.0733 41.8477 93.7842 41.8477ZM104.736 32.3555C105.697 31.1758 106.947 30.5859 108.486 30.5859C111.166 30.5859 112.518 32.0977 112.541 35.1211V43.5H110.373V35.1094C110.365 34.1953 110.154 33.5195 109.74 33.082C109.334 32.6445 108.697 32.4258 107.83 32.4258C107.127 32.4258 106.51 32.6133 105.979 32.9883C105.447 33.3633 105.033 33.8555 104.736 34.4648V43.5H102.568V25.5H104.736V32.3555ZM118.103 43.5H115.935V30.8203H118.103V43.5ZM115.759 27.457C115.759 27.1055 115.864 26.8086 116.075 26.5664C116.294 26.3242 116.614 26.2031 117.036 26.2031C117.458 26.2031 117.778 26.3242 117.997 26.5664C118.216 26.8086 118.325 27.1055 118.325 27.457C118.325 27.8086 118.216 28.1016 117.997 28.3359C117.778 28.5703 117.458 28.6875 117.036 28.6875C116.614 28.6875 116.294 28.5703 116.075 28.3359C115.864 28.1016 115.759 27.8086 115.759 27.457ZM137.218 39.0469H130.07L128.464 43.5H126.144L132.659 26.4375H134.628L141.155 43.5H138.847L137.218 39.0469ZM130.749 37.1953H136.55L133.644 29.2148L130.749 37.1953ZM142.545 37.0547C142.545 35.1094 143.006 33.5469 143.928 32.3672C144.85 31.1797 146.057 30.5859 147.549 30.5859C149.033 30.5859 150.209 31.0938 151.076 32.1094V25.5H153.244V43.5H151.252L151.147 42.1406C150.28 43.2031 149.073 43.7344 147.526 43.7344C146.057 43.7344 144.858 43.1328 143.928 41.9297C143.006 40.7266 142.545 39.1562 142.545 37.2188V37.0547ZM144.713 37.3008C144.713 38.7383 145.01 39.8633 145.604 40.6758C146.198 41.4883 147.018 41.8945 148.065 41.8945C149.44 41.8945 150.444 41.2773 151.076 40.043V34.2188C150.428 33.0234 149.432 32.4258 148.088 32.4258C147.026 32.4258 146.198 32.8359 145.604 33.6562C145.01 34.4766 144.713 35.6914 144.713 37.3008ZM158.618 30.8203L158.677 32.2266C159.607 31.1328 160.861 30.5859 162.439 30.5859C164.212 30.5859 165.419 31.2656 166.06 32.625C166.482 32.0156 167.029 31.5234 167.7 31.1484C168.38 30.7734 169.181 30.5859 170.103 30.5859C172.884 30.5859 174.298 32.0586 174.345 35.0039V43.5H172.177V35.1328C172.177 34.2266 171.97 33.5508 171.556 33.1055C171.142 32.6523 170.447 32.4258 169.47 32.4258C168.665 32.4258 167.997 32.668 167.466 33.1523C166.935 33.6289 166.626 34.2734 166.54 35.0859V43.5H164.361V35.1914C164.361 33.3477 163.458 32.4258 161.654 32.4258C160.232 32.4258 159.259 33.0312 158.736 34.2422V43.5H156.568V30.8203H158.618ZM179.942 43.5H177.774V30.8203H179.942V43.5ZM177.598 27.457C177.598 27.1055 177.703 26.8086 177.914 26.5664C178.133 26.3242 178.453 26.2031 178.875 26.2031C179.297 26.2031 179.618 26.3242 179.836 26.5664C180.055 26.8086 180.164 27.1055 180.164 27.457C180.164 27.8086 180.055 28.1016 179.836 28.3359C179.618 28.5703 179.297 28.6875 178.875 28.6875C178.453 28.6875 178.133 28.5703 177.914 28.3359C177.703 28.1016 177.598 27.8086 177.598 27.457ZM185.433 30.8203L185.503 32.4141C186.472 31.1953 187.738 30.5859 189.3 30.5859C191.98 30.5859 193.331 32.0977 193.355 35.1211V43.5H191.187V35.1094C191.179 34.1953 190.968 33.5195 190.554 33.082C190.148 32.6445 189.511 32.4258 188.644 32.4258C187.941 32.4258 187.324 32.6133 186.792 32.9883C186.261 33.3633 185.847 33.8555 185.55 34.4648V43.5H183.382V30.8203H185.433Z" fill="#2C2C2C"/>
</svg>
