<svg width="25" height="24" viewBox="0 0 25 24" fill="none" xmlns="http://www.w3.org/2000/svg">
<path d="M21.875 21.4838V14.0062C21.875 13.9398 21.8619 13.8739 21.8365 13.8125C21.811 13.7511 21.7737 13.6953 21.7267 13.6483C21.6797 13.6013 21.6239 13.564 21.5625 13.5385C21.5011 13.5131 21.4352 13.5 21.3688 13.5H4.38125C4.31477 13.5 4.24894 13.5131 4.18752 13.5385C4.1261 13.564 4.07029 13.6013 4.02328 13.6483C3.97627 13.6953 3.93898 13.7511 3.91354 13.8125C3.88809 13.8739 3.875 13.9398 3.875 14.0062V21.4838C3.875 21.7533 3.98207 22.0118 4.17265 22.2023C4.26702 22.2967 4.37905 22.3716 4.50235 22.4226C4.62565 22.4737 4.75779 22.5 4.89125 22.5H20.8587C21.1283 22.5 21.3868 22.3929 21.5773 22.2023C21.7679 22.0118 21.875 21.7533 21.875 21.4838ZM10.625 15C10.7733 15 10.9183 15.044 11.0417 15.1264C11.165 15.2088 11.2611 15.3259 11.3179 15.463C11.3747 15.6 11.3895 15.7508 11.3606 15.8963C11.3317 16.0418 11.2602 16.1754 11.1553 16.2803C11.0504 16.3852 10.9168 16.4567 10.7713 16.4856C10.6258 16.5145 10.475 16.4997 10.338 16.4429C10.2009 16.3861 10.0838 16.29 10.0014 16.1667C9.91899 16.0433 9.875 15.8983 9.875 15.75C9.875 15.5511 9.95402 15.3603 10.0947 15.2197C10.2353 15.079 10.4261 15 10.625 15ZM15.0912 20.97C14.9429 20.97 14.7979 20.926 14.6746 20.8436C14.5512 20.7612 14.4551 20.6441 14.3983 20.507C14.3416 20.37 14.3267 20.2192 14.3557 20.0737C14.3846 19.9282 14.456 19.7946 14.5609 19.6897C14.6658 19.5848 14.7994 19.5134 14.9449 19.4844C15.0904 19.4555 15.2412 19.4703 15.3783 19.5271C15.5153 19.5839 15.6324 19.68 15.7149 19.8033C15.7973 19.9267 15.8412 20.0717 15.8412 20.22C15.8412 20.4189 15.7622 20.6097 15.6216 20.7503C15.4809 20.891 15.2902 20.97 15.0912 20.97ZM15.6238 16.2825L11.1575 20.745C11.0168 20.8857 10.8259 20.9648 10.6269 20.9648C10.4279 20.9648 10.237 20.8857 10.0963 20.745C9.95552 20.6043 9.87646 20.4134 9.87646 20.2144C9.87646 20.0154 9.95552 19.8245 10.0963 19.6838L14.5625 15.2213C14.7032 15.0805 14.8941 15.0015 15.0931 15.0015C15.2921 15.0015 15.483 15.0805 15.6238 15.2213C15.7645 15.362 15.8435 15.5529 15.8435 15.7519C15.8435 15.9509 15.7645 16.1418 15.6238 16.2825Z" fill="#839AB2"/>
<path d="M11.8738 12H13.8763C14.0065 12.0006 14.1321 11.9524 14.2286 11.865C14.3251 11.7775 14.3853 11.6571 14.3975 11.5275C14.4378 11.0772 14.4378 10.6241 14.3975 10.1737L14.24 8.205C14.195 7.63669 14.1009 7.07334 13.9588 6.52125C13.9204 6.37439 13.8353 6.24403 13.7161 6.14996C13.597 6.05589 13.4505 6.00324 13.2988 6H12.4475C12.2951 6.00032 12.1472 6.05135 12.027 6.14505C11.9068 6.23875 11.8212 6.36979 11.7838 6.5175C11.6376 7.09969 11.5398 7.69296 11.4913 8.29125L11.3413 10.1662C11.3009 10.6166 11.3009 11.0697 11.3413 11.52C11.3518 11.6529 11.4128 11.7768 11.5119 11.8661C11.6109 11.9554 11.7404 12.0033 11.8738 12Z" fill="#839AB2"/>
<path d="M16.3587 12H18.5C18.875 12 19.0925 11.3813 18.9312 10.8525L17.8625 7.35C17.6112 6.52125 17.0937 6 16.5275 6H16.0662C15.9988 6.0003 15.9323 6.01513 15.8711 6.04348C15.81 6.07183 15.7557 6.11304 15.7119 6.1643C15.6681 6.21556 15.6359 6.27565 15.6174 6.34049C15.599 6.40532 15.5947 6.47337 15.605 6.54C15.6462 6.8025 15.665 7.04625 15.68 7.23375L15.9612 10.7362C15.9825 11.0209 15.9825 11.3066 15.9612 11.5912C15.9563 11.6452 15.963 11.6996 15.9811 11.7507C15.9991 11.8018 16.028 11.8484 16.0658 11.8872C16.1036 11.9261 16.1493 11.9563 16.1999 11.9757C16.2505 11.9952 16.3047 12.0035 16.3587 12Z" fill="#839AB2"/>
<path d="M10.0738 7.23C10.0738 7.0425 10.1075 6.8025 10.1488 6.53625C10.1585 6.4696 10.1537 6.40163 10.1347 6.33699C10.1158 6.27235 10.0832 6.21255 10.039 6.16166C9.99491 6.11077 9.94033 6.06999 9.87902 6.04209C9.81771 6.01419 9.75111 5.99984 9.68376 6H9.21876C8.65251 6 8.13876 6.525 7.88376 7.35L6.81501 10.8525C6.65751 11.3813 6.87501 12 7.25001 12H9.39125C9.44382 12.0003 9.49586 11.9895 9.54398 11.9683C9.59211 11.9472 9.63525 11.9162 9.67061 11.8773C9.70597 11.8384 9.73276 11.7925 9.74924 11.7425C9.76572 11.6926 9.77151 11.6398 9.76625 11.5875C9.745 11.3029 9.745 11.0171 9.76625 10.7325L10.0738 7.23Z" fill="#839AB2"/>
<path d="M6.45124 6.91504C6.48624 6.80254 6.52374 6.69504 6.56374 6.59254C6.59146 6.52995 6.60016 6.46058 6.58873 6.39309C6.57731 6.32559 6.54627 6.26295 6.49949 6.21297C6.45271 6.16299 6.39225 6.12788 6.32566 6.11202C6.25906 6.09617 6.18927 6.10026 6.12499 6.12379C5.81811 6.22368 5.53413 6.38351 5.28951 6.59401C5.04489 6.80451 4.84451 7.06149 4.69999 7.35004L2.94874 10.8525C2.88782 10.9733 2.8589 11.1077 2.86473 11.2429C2.87057 11.3781 2.91096 11.5095 2.98205 11.6246C3.05315 11.7397 3.15257 11.8347 3.27082 11.9004C3.38907 11.9661 3.5222 12.0004 3.65749 12H4.88749C4.94529 11.999 5.00222 11.9857 5.05451 11.961C5.1068 11.9364 5.15327 11.9009 5.19083 11.857C5.2284 11.813 5.25622 11.7616 5.27245 11.7061C5.28868 11.6506 5.29295 11.5923 5.28499 11.535C5.23839 11.1574 5.27161 10.7741 5.38249 10.41L6.45124 6.91504Z" fill="#839AB2"/>
<path d="M22.8012 10.8525L21.05 7.35003C20.9055 7.06148 20.7051 6.8045 20.4605 6.594C20.2158 6.3835 19.9319 6.22367 19.625 6.12378C19.5609 6.10131 19.4917 6.09803 19.4257 6.11435C19.3598 6.13066 19.3001 6.16587 19.2539 6.21565C19.2077 6.26542 19.1771 6.3276 19.1657 6.39455C19.1544 6.4615 19.1628 6.53031 19.19 6.59253C19.23 6.69753 19.2675 6.80503 19.3025 6.91503L20.375 10.4175C20.4859 10.7816 20.5191 11.1648 20.4725 11.5425C20.4657 11.5986 20.4706 11.6555 20.4869 11.7096C20.5032 11.7637 20.5306 11.8138 20.5672 11.8568C20.6039 11.8997 20.649 11.9347 20.6998 11.9593C20.7507 11.984 20.806 11.9979 20.8625 12H22.0925C22.2278 12.0004 22.3609 11.9661 22.4792 11.9004C22.5974 11.8346 22.6968 11.7397 22.7679 11.6246C22.839 11.5095 22.8794 11.3781 22.8852 11.2429C22.8911 11.1077 22.8622 10.9733 22.8012 10.8525Z" fill="#839AB2"/>
<path d="M19.625 3.75H6.125C5.92609 3.75 5.73532 3.82902 5.59467 3.96967C5.45402 4.11032 5.375 4.30109 5.375 4.5C5.375 4.69891 5.45402 4.88968 5.59467 5.03033C5.73532 5.17098 5.92609 5.25 6.125 5.25H19.625C19.8239 5.25 20.0147 5.17098 20.1553 5.03033C20.296 4.88968 20.375 4.69891 20.375 4.5C20.375 4.30109 20.296 4.11032 20.1553 3.96967C20.0147 3.82902 19.8239 3.75 19.625 3.75Z" fill="#839AB2"/>
</svg>
