<svg width="48" height="48" viewBox="0 0 48 48" fill="none" xmlns="http://www.w3.org/2000/svg">
<rect x="0.5" y="0.5" width="47" height="47" rx="23.5" fill="#EAEAEA" stroke="white"/>
<path fill-rule="evenodd" clip-rule="evenodd" d="M21.625 18.7083C21.625 17.1205 22.9122 15.8333 24.5 15.8333C26.0878 15.8333 27.375 17.1205 27.375 18.7083C27.375 20.2961 26.0878 21.5833 24.5 21.5833C22.9122 21.5833 21.625 20.2961 21.625 18.7083ZM24.5 13.9167C21.8536 13.9167 19.7083 16.062 19.7083 18.7083C19.7083 21.3547 21.8536 23.5 24.5 23.5C27.1464 23.5 29.2917 21.3547 29.2917 18.7083C29.2917 16.062 27.1464 13.9167 24.5 13.9167ZM20.6667 25.4167C19.3958 25.4167 18.1771 25.9215 17.2784 26.8201C16.3798 27.7187 15.875 28.9375 15.875 30.2083V32.125C15.875 32.6543 16.3041 33.0833 16.8333 33.0833H32.1667C32.6959 33.0833 33.125 32.6543 33.125 32.125V30.2083C33.125 28.9375 32.6202 27.7187 31.7216 26.8201C30.8229 25.9215 29.6042 25.4167 28.3333 25.4167H20.6667ZM18.6337 28.1754C19.1729 27.6362 19.9042 27.3333 20.6667 27.3333H28.3333C29.0958 27.3333 29.8271 27.6362 30.3663 28.1754C30.9054 28.7146 31.2083 29.4458 31.2083 30.2083V31.1667H17.7917V30.2083C17.7917 29.4458 18.0946 28.7146 18.6337 28.1754Z" fill="#949AA3"/>
<mask id="mask0" mask-type="alpha" maskUnits="userSpaceOnUse" x="0" y="0" width="48" height="48">
<rect x="0.5" y="0.5" width="47" height="47" rx="23.5" fill="#EAEAEA" stroke="white"/>
</mask>
<g mask="url(#mask0)">
</g>
</svg>
