<svg width="64" height="65" viewBox="0 0 64 65" fill="none" xmlns="http://www.w3.org/2000/svg">
<path d="M51.0568 10.6221H44.8926C44.4379 10.6221 43.9831 10.7737 43.6294 11.0263L43.0737 11.4305C41.9115 12.2389 40.6484 12.8453 39.3347 13.1989C38.3242 10.4705 35.6968 8.5 32.6147 8.5C29.5326 8.5 26.9052 10.4705 25.8442 13.1989C24.5305 12.8453 23.2674 12.2389 22.1053 11.4305L21.5495 11.0263C21.1958 10.7737 20.741 10.6221 20.2863 10.6221H14.1726C12.96 10.6221 12 11.5821 12 12.7947C12 14.0074 12.96 14.9674 14.1726 14.9674H19.5789C21.3979 16.281 23.4695 17.14 25.6421 17.5947C25.8947 18.5547 26.3495 19.4137 26.9558 20.1716C23.1663 22.1926 20.5389 26.1842 20.5389 30.7821V44.5252C20.5389 46.5968 22.2063 48.2642 24.2779 48.2642H25.3895V41.3421C25.3895 37.3505 28.6231 34.0663 32.6652 34.0663C36.6568 34.0663 39.8905 37.3 39.8905 41.3421V48.2642H41.0021C43.0737 48.2642 44.741 46.5968 44.741 44.5252V30.7821C44.741 27.4473 43.3768 24.4663 41.2042 22.2431C40.3452 21.4347 39.3852 20.7274 38.3242 20.1716C38.9305 19.4137 39.3347 18.5547 39.5873 17.5947C41.76 17.14 43.781 16.281 45.6505 14.9674H51.0568C52.2694 14.9674 53.2294 14.0074 53.2294 12.7947C53.2294 11.5821 52.2189 10.6221 51.0568 10.6221ZM32.6147 11.7842C34.7873 11.7842 36.6063 13.5526 36.6063 15.7758C36.6063 17.9989 34.8379 19.7674 32.6147 19.7674C30.4421 19.7674 28.6231 17.9989 28.6231 15.7758C28.6231 13.5526 30.4421 11.7842 32.6147 11.7842Z" fill="#1B57C4"/>
<path d="M32.6146 37.3505C30.442 37.3505 28.623 39.1189 28.623 41.342V52.5083C28.623 54.681 30.3915 56.4999 32.6146 56.4999C34.7873 56.4999 36.6062 54.7315 36.6062 52.5083V41.342C36.6062 39.1694 34.7873 37.3505 32.6146 37.3505Z" fill="#1B57C4"/>
</svg>
