<svg width="25" height="24" viewBox="0 0 25 24" fill="none" xmlns="http://www.w3.org/2000/svg">
<path d="M19.4231 4.38354H5.57691C4.42986 4.38354 3.49998 5.31342 3.49998 6.46047V18.922C3.49998 20.0691 4.42986 20.9989 5.57691 20.9989H19.4231C20.5701 20.9989 21.5 20.0691 21.5 18.922V6.46047C21.5 5.31342 20.5701 4.38354 19.4231 4.38354Z" stroke="#1B57C4" stroke-width="1.38462" stroke-linejoin="round"/>
<path d="M18.6364 4.38354H6.36354C4.78465 4.38354 3.49998 5.68811 3.49998 7.29124V9.92201H4.19229C4.19229 9.2297 4.8846 8.53739 5.57691 8.53739H19.4231C20.1154 8.53739 20.8077 9.2297 20.8077 9.92201H21.5V7.29124C21.5 5.68811 20.2153 4.38354 18.6364 4.38354Z" fill="#1B57C4"/>
<path d="M14.2307 11.999C14.8042 11.999 15.2691 11.5341 15.2691 10.9606C15.2691 10.3871 14.8042 9.92212 14.2307 9.92212C13.6571 9.92212 13.1922 10.3871 13.1922 10.9606C13.1922 11.5341 13.6571 11.999 14.2307 11.999Z" fill="#1B57C4"/>
<path d="M17.6922 11.999C18.2658 11.999 18.7307 11.5341 18.7307 10.9606C18.7307 10.3871 18.2658 9.92212 17.6922 9.92212C17.1187 9.92212 16.6538 10.3871 16.6538 10.9606C16.6538 11.5341 17.1187 11.999 17.6922 11.999Z" fill="#1B57C4"/>
<path d="M14.2307 15.46C14.8042 15.46 15.2691 14.995 15.2691 14.4215C15.2691 13.848 14.8042 13.3831 14.2307 13.3831C13.6571 13.3831 13.1922 13.848 13.1922 14.4215C13.1922 14.995 13.6571 15.46 14.2307 15.46Z" fill="#1B57C4"/>
<path d="M17.6922 15.46C18.2658 15.46 18.7307 14.995 18.7307 14.4215C18.7307 13.848 18.2658 13.3831 17.6922 13.3831C17.1187 13.3831 16.6538 13.848 16.6538 14.4215C16.6538 14.995 17.1187 15.46 17.6922 15.46Z" fill="#1B57C4"/>
<path d="M7.30762 15.46C7.88115 15.46 8.34609 14.995 8.34609 14.4215C8.34609 13.848 7.88115 13.3831 7.30762 13.3831C6.7341 13.3831 6.26916 13.848 6.26916 14.4215C6.26916 14.995 6.7341 15.46 7.30762 15.46Z" fill="#1B57C4"/>
<path d="M10.7692 15.46C11.3427 15.46 11.8076 14.995 11.8076 14.4215C11.8076 13.848 11.3427 13.3831 10.7692 13.3831C10.1956 13.3831 9.7307 13.848 9.7307 14.4215C9.7307 14.995 10.1956 15.46 10.7692 15.46Z" fill="#1B57C4"/>
<path d="M7.30762 18.9221C7.88115 18.9221 8.34609 18.4572 8.34609 17.8837C8.34609 17.3102 7.88115 16.8452 7.30762 16.8452C6.7341 16.8452 6.26916 17.3102 6.26916 17.8837C6.26916 18.4572 6.7341 18.9221 7.30762 18.9221Z" fill="#1B57C4"/>
<path d="M10.7692 18.9221C11.3427 18.9221 11.8076 18.4572 11.8076 17.8837C11.8076 17.3102 11.3427 16.8452 10.7692 16.8452C10.1956 16.8452 9.7307 17.3102 9.7307 17.8837C9.7307 18.4572 10.1956 18.9221 10.7692 18.9221Z" fill="#1B57C4"/>
<path d="M14.2307 18.9221C14.8042 18.9221 15.2691 18.4572 15.2691 17.8837C15.2691 17.3102 14.8042 16.8452 14.2307 16.8452C13.6571 16.8452 13.1922 17.3102 13.1922 17.8837C13.1922 18.4572 13.6571 18.9221 14.2307 18.9221Z" fill="#1B57C4"/>
<path d="M6.96136 2.99902V4.38364" stroke="#1B57C4" stroke-width="1.38462" stroke-linecap="round" stroke-linejoin="round"/>
<path d="M18.0384 2.99902V4.38364" stroke="#1B57C4" stroke-width="1.38462" stroke-linecap="round" stroke-linejoin="round"/>
</svg>
