<svg width="20" height="20" viewBox="0 0 20 20" fill="none" xmlns="http://www.w3.org/2000/svg">
<path d="M11.3344 12.6667C10.9394 12.9306 10.4751 13.0714 10.0001 13.0714C9.36306 13.0714 8.75216 12.8184 8.30173 12.368C7.85131 11.9175 7.59827 11.3066 7.59827 10.6696C7.59827 10.1946 7.73913 9.73025 8.00304 9.33528C8.26695 8.94031 8.64206 8.63246 9.08093 8.45068C9.5198 8.26889 10.0027 8.22133 10.4686 8.314C10.9345 8.40668 11.3625 8.63543 11.6984 8.97132C12.0343 9.30722 12.263 9.73517 12.3557 10.2011C12.4484 10.667 12.4008 11.1499 12.219 11.5888C12.0372 12.0276 11.7294 12.4027 11.3344 12.6667Z" fill="url(#paint0_linear)" stroke="url(#paint1_linear)"/>
<path d="M12.8596 3.97755L12.8595 3.97759L12.8641 3.98437L13.875 5.48762C13.8754 5.48819 13.8757 5.48876 13.8761 5.48932C13.9696 5.62973 14.0962 5.74491 14.2449 5.82465C14.394 5.90466 14.5607 5.94649 14.7299 5.94643C14.73 5.94643 14.7302 5.94643 14.7303 5.94643L16.9121 5.94643C17.1011 5.94643 17.2825 6.02154 17.4162 6.15525C17.5499 6.28895 17.625 6.47029 17.625 6.65937V15.4547C17.625 15.7454 17.5098 16.0243 17.3046 16.2303C17.0995 16.4361 16.8213 16.5523 16.5308 16.5536H3.47388C3.18244 16.5536 2.90294 16.4378 2.69686 16.2317C2.49077 16.0256 2.375 15.7461 2.375 15.4547V6.65937C2.375 6.47029 2.45011 6.28895 2.58382 6.15525C2.71752 6.02154 2.89886 5.94643 3.08795 5.94643H5.27009V5.94643L5.27249 5.94642C5.4409 5.94561 5.60652 5.90333 5.7547 5.82331C5.90219 5.74367 6.02789 5.62908 6.12081 5.4896L7.13553 3.98492L7.13559 3.98496L7.1404 3.97755C7.21011 3.87014 7.30538 3.7817 7.41768 3.72017C7.5295 3.6589 7.65472 3.62621 7.78221 3.625H12.2178C12.3453 3.62621 12.4705 3.6589 12.5823 3.72017C12.6946 3.7817 12.7899 3.87014 12.8596 3.97755ZM16.4038 6.28922L16.126 6.70495L16.4038 6.28922C16.2261 6.1705 16.0172 6.10714 15.8036 6.10714C15.517 6.10714 15.2422 6.22097 15.0396 6.42357C14.837 6.62618 14.7232 6.90097 14.7232 7.1875C14.7232 7.40117 14.7866 7.61005 14.9053 7.78771C15.024 7.96538 15.1927 8.10385 15.3901 8.18562C15.5875 8.26739 15.8048 8.28878 16.0143 8.2471C16.2239 8.20541 16.4164 8.10252 16.5675 7.95143C16.7186 7.80034 16.8215 7.60783 16.8632 7.39827C16.9049 7.1887 16.8835 6.97147 16.8017 6.77407C16.7199 6.57665 16.5814 6.40793 16.4038 6.28922ZM12.5348 6.87606C11.7845 6.37473 10.9024 6.10714 10 6.10714C8.78995 6.10714 7.62946 6.58783 6.77383 7.44347C5.91819 8.2991 5.4375 9.45959 5.4375 10.6696C5.4375 11.572 5.70509 12.4541 6.20642 13.2044C6.70775 13.9547 7.42032 14.5395 8.25401 14.8848C9.08769 15.2302 10.0051 15.3205 10.8901 15.1445C11.7751 14.9684 12.5881 14.5339 13.2262 13.8958C13.8643 13.2577 14.2988 12.4448 14.4748 11.5597C14.6509 10.6747 14.5605 9.75734 14.2152 8.92365C13.8699 8.08996 13.2851 7.3774 12.5348 6.87606Z" fill="url(#paint2_linear)" stroke="url(#paint3_linear)"/>
<path d="M16.3201 3.625H16.3201C16.3582 3.625 16.3948 3.6401 16.4218 3.667C16.4487 3.69373 16.4639 3.72995 16.4643 3.76782V3.78571H15.8471C15.7288 3.78571 15.6154 3.73873 15.5317 3.65509C15.5221 3.64544 15.5129 3.6354 15.5043 3.625H16.3201Z" fill="url(#paint4_linear)" stroke="url(#paint5_linear)"/>
<defs>
<linearGradient id="paint0_linear" x1="11.8843" y1="8.39595" x2="7.81429" y2="12.5916" gradientUnits="userSpaceOnUse">
<stop stop-color="#19B9FB"/>
<stop offset="0.473971" stop-color="#1C99F7"/>
<stop offset="1" stop-color="#1F79F3"/>
</linearGradient>
<linearGradient id="paint1_linear" x1="11.8843" y1="8.39595" x2="7.81429" y2="12.5916" gradientUnits="userSpaceOnUse">
<stop stop-color="#19B9FB"/>
<stop offset="0.473971" stop-color="#1C99F7"/>
<stop offset="1" stop-color="#1F79F3"/>
</linearGradient>
<linearGradient id="paint2_linear" x1="15.276" y1="4.63242" x2="5.66746" y2="16.1883" gradientUnits="userSpaceOnUse">
<stop stop-color="#19B9FB"/>
<stop offset="0.473971" stop-color="#1C99F7"/>
<stop offset="1" stop-color="#1F79F3"/>
</linearGradient>
<linearGradient id="paint3_linear" x1="15.276" y1="4.63242" x2="5.66746" y2="16.1883" gradientUnits="userSpaceOnUse">
<stop stop-color="#19B9FB"/>
<stop offset="0.473971" stop-color="#1C99F7"/>
<stop offset="1" stop-color="#1F79F3"/>
</linearGradient>
<linearGradient id="paint4_linear" x1="16.6026" y1="3.25062" x2="15.9177" y2="4.5056" gradientUnits="userSpaceOnUse">
<stop stop-color="#19B9FB"/>
<stop offset="0.473971" stop-color="#1C99F7"/>
<stop offset="1" stop-color="#1F79F3"/>
</linearGradient>
<linearGradient id="paint5_linear" x1="16.6026" y1="3.25062" x2="15.9177" y2="4.5056" gradientUnits="userSpaceOnUse">
<stop stop-color="#19B9FB"/>
<stop offset="0.473971" stop-color="#1C99F7"/>
<stop offset="1" stop-color="#1F79F3"/>
</linearGradient>
</defs>
</svg>
