<svg width="64" height="65" viewBox="0 0 64 65" fill="none" xmlns="http://www.w3.org/2000/svg">
<path fill-rule="evenodd" clip-rule="evenodd" d="M43.089 15.0908C45.0175 15.1746 46.7784 15.8454 48.3715 17.5224L51.1385 26.7458C38.645 29.1774 25.3129 29.1774 12.8194 26.7458L15.6703 17.5224C17.2634 15.8454 19.0242 15.1746 20.8689 15.0908C27.8284 14.3361 36.2133 14.3361 43.089 15.0908ZM46.443 48.2112V52.3198C46.443 53.6614 47.533 54.8353 48.9584 54.8353H56.3372C57.6788 54.8353 58.7688 53.6614 58.7688 52.3198C58.7688 46.115 58.8527 39.9101 58.8527 33.7053C58.5173 32.9507 58.2657 32.1122 57.9303 31.3575C64.5544 31.9445 62.7097 25.3204 55.1633 25.9073L51.8093 16.3485C50.8031 13.7492 48.4553 12.156 45.0175 11.3175C36.968 10.2275 26.9899 10.2275 19.0242 11.3175C15.5864 12.156 13.2386 13.7492 12.2324 16.3485L8.79462 25.9073C1.33203 25.3204 -0.596507 31.9445 6.11144 31.3575C5.77604 32.1122 5.52449 32.9507 5.1891 33.7053C5.1891 39.9101 5.1891 46.115 5.1891 52.3198C5.1891 53.6614 6.36299 54.8353 7.70458 54.8353H15.0833C16.4249 54.8353 17.5988 53.6614 17.5988 52.3198V48.2112H46.443ZM9.80081 38.4009C9.80081 37.227 9.88466 35.7177 9.88466 35.1307C9.96851 33.3699 12.8194 33.2022 13.574 33.6215C13.6579 33.6215 19.0242 35.9692 21.7074 37.227C22.1267 38.1493 22.1267 38.9878 21.6236 39.6586C16.5926 40.7486 11.8132 41.0002 9.80081 38.4009ZM54.2409 38.4009C54.2409 37.227 54.0732 35.7177 54.0732 35.1307C54.0732 33.3699 51.2224 33.2022 50.4677 33.6215C50.3 33.6215 45.0175 35.9692 42.3343 37.227C41.9151 38.1493 41.8312 38.9878 42.3343 39.6586C47.4492 40.7486 52.1447 41.0002 54.2409 38.4009Z" fill="#1B57C4"/>
</svg>
