<svg width="36" height="36" viewBox="0 0 36 36" fill="none" xmlns="http://www.w3.org/2000/svg">
<path d="M18 16.5858L17.6464 16.2323L12.7071 11.2929C12.7071 11.2929 12.7071 11.2929 12.7071 11.2929C12.3166 10.9024 11.6834 10.9024 11.2929 11.2929C11.2929 11.2929 11.2929 11.2929 11.2929 11.2929M18 16.5858L11.2929 11.2929M18 16.5858L18.3536 16.2323L23.2929 11.2929L23.2929 11.2929C23.6834 10.9024 24.3166 10.9024 24.7071 11.2929C25.0976 11.6834 25.0976 12.3166 24.7071 12.7071C24.7071 12.7071 24.7071 12.7071 24.7071 12.7071L19.7677 17.6464L19.4142 18L19.7677 18.3536L24.7071 23.2929C25.0976 23.6834 25.0976 24.3166 24.7071 24.7071C24.3166 25.0976 23.6834 25.0976 23.2929 24.7071L18.3536 19.7677L18 19.4142L17.6464 19.7677L12.7071 24.7071C12.7071 24.7071 12.7071 24.7071 12.7071 24.7071C12.3166 25.0976 11.6834 25.0976 11.2929 24.7071C10.9024 24.3166 10.9024 23.6834 11.2929 23.2929L11.2929 23.2929L16.2323 18.3536L16.5858 18L16.2323 17.6464L11.2929 12.7071M18 16.5858L11.2929 12.7071M11.2929 11.2929C10.9024 11.6834 10.9024 12.3166 11.2929 12.7071M11.2929 11.2929L11.2929 12.7071M11.2929 12.7071C11.2929 12.7071 11.2929 12.7071 11.2929 12.7071M11.2929 12.7071L11.2929 12.7071" fill="white" stroke="white"/>
</svg>
