<svg width="10" height="10" viewBox="0 0 10 10" fill="none" xmlns="http://www.w3.org/2000/svg">
<path d="M1.35357 9.35353L4.64645 6.06065L5 5.70709L5.35355 6.06065L8.64645 9.35355C8.84169 9.54878 9.15831 9.54878 9.35355 9.35355C9.54878 9.15831 9.54878 8.84169 9.35355 8.64645L6.06065 5.35355L5.70709 5L6.06065 4.64645L9.35353 1.35357C9.54879 1.1583 9.54879 0.841701 9.35354 0.646434C9.1583 0.451189 8.8417 0.451189 8.64646 0.646434L8.64645 0.646443L5.35355 3.93935L5 4.29291L4.64645 3.93935L1.35356 0.646448C1.35356 0.646446 1.35356 0.646444 1.35356 0.646442C1.15829 0.451187 0.841716 0.451186 0.646448 0.646439C0.646445 0.646442 0.646442 0.646445 0.646439 0.646448M1.35357 9.35353L0.646439 0.646448M1.35357 9.35353C1.1583 9.54879 0.841701 9.54879 0.64643 9.35353C0.451189 9.1583 0.451189 8.8417 0.646434 8.64646L0.646443 8.64645L3.93935 5.35355L4.29291 5L3.93935 4.64645L0.646448 1.35356M1.35357 9.35353L0.646448 1.35356M0.646439 0.646448C0.451186 0.841716 0.451187 1.15829 0.646442 1.35356M0.646439 0.646448L0.646442 1.35356M0.646442 1.35356C0.646444 1.35356 0.646446 1.35356 0.646448 1.35356M0.646442 1.35356L0.646448 1.35356" fill="#919191" stroke="#919191"/>
</svg>
