<svg width="41" height="40" viewBox="0 0 41 40" fill="none" xmlns="http://www.w3.org/2000/svg">
<path d="M13.0792 6.25H8.81083C7.60167 6.25143 6.44243 6.73241 5.58742 7.58742C4.73241 8.44243 4.25143 9.60167 4.25 10.8108V15.0792C4.25 15.3665 4.36414 15.642 4.5673 15.8452C4.77047 16.0484 5.04602 16.1625 5.33333 16.1625C5.62065 16.1625 5.8962 16.0484 6.09937 15.8452C6.30253 15.642 6.41667 15.3665 6.41667 15.0792V10.8108C6.41667 10.1759 6.66891 9.5669 7.1179 9.1179C7.5669 8.66891 8.17586 8.41667 8.81083 8.41667H13.0792C13.3665 8.41667 13.642 8.30253 13.8452 8.09937C14.0484 7.8962 14.1625 7.62065 14.1625 7.33333C14.1625 7.04602 14.0484 6.77047 13.8452 6.5673C13.642 6.36414 13.3665 6.25 13.0792 6.25Z" fill="url(#paint0_linear)"/>
<path d="M32.189 6.25H27.9207C27.6334 6.25 27.3578 6.36414 27.1547 6.5673C26.9515 6.77047 26.8374 7.04602 26.8374 7.33333C26.8374 7.62065 26.9515 7.8962 27.1547 8.09937C27.3578 8.30253 27.6334 8.41667 27.9207 8.41667H32.189C32.824 8.41667 33.433 8.66891 33.882 9.1179C34.3309 9.5669 34.5832 10.1759 34.5832 10.8108V15.0792C34.5832 15.3665 34.6973 15.642 34.9005 15.8452C35.1037 16.0484 35.3792 16.1625 35.6665 16.1625C35.9538 16.1625 36.2294 16.0484 36.4326 15.8452C36.6357 15.642 36.7499 15.3665 36.7499 15.0792V10.8108C36.7484 9.60167 36.2674 8.44243 35.4124 7.58742C34.5574 6.73241 33.3982 6.25143 32.189 6.25Z" fill="url(#paint1_linear)"/>
<path d="M13.0792 31.167H8.81083C8.17586 31.167 7.5669 30.9147 7.1179 30.4657C6.66891 30.0167 6.41667 29.4078 6.41667 28.7728V24.5045C6.41667 24.2172 6.30253 23.9416 6.09937 23.7384C5.8962 23.5353 5.62065 23.4211 5.33333 23.4211C5.04602 23.4211 4.77047 23.5353 4.5673 23.7384C4.36414 23.9416 4.25 24.2172 4.25 24.5045V28.7728C4.25143 29.982 4.73241 31.1412 5.58742 31.9962C6.44243 32.8512 7.60167 33.3322 8.81083 33.3336H13.0792C13.3665 33.3336 13.642 33.2195 13.8452 33.0163C14.0484 32.8132 14.1625 32.5376 14.1625 32.2503C14.1625 31.963 14.0484 31.6874 13.8452 31.4843C13.642 31.2811 13.3665 31.167 13.0792 31.167Z" fill="url(#paint2_linear)"/>
<path d="M34.5832 24.5045V28.7728C34.5832 29.4078 34.3309 30.0167 33.882 30.4657C33.433 30.9147 32.824 31.167 32.189 31.167H27.9207C27.6334 31.167 27.3578 31.2811 27.1547 31.4843C26.9515 31.6874 26.8374 31.963 26.8374 32.2503C26.8374 32.5376 26.9515 32.8132 27.1547 33.0163C27.3578 33.2195 27.6334 33.3336 27.9207 33.3336H32.189C33.3982 33.3322 34.5574 32.8512 35.4124 31.9962C36.2674 31.1412 36.7484 29.982 36.7499 28.7728V24.5045C36.7499 24.2172 36.6357 23.9416 36.4326 23.7384C36.2294 23.5353 35.9538 23.4211 35.6665 23.4211C35.3792 23.4211 35.1037 23.5353 34.9005 23.7384C34.6973 23.9416 34.5832 24.2172 34.5832 24.5045Z" fill="url(#paint3_linear)"/>
<path d="M12.2233 10.6537H8.81077C8.21246 10.6537 7.72743 11.1387 7.72743 11.737V27.8516C7.72743 28.4499 8.21246 28.9349 8.81077 28.9349H12.2233C12.8216 28.9349 13.3066 28.4499 13.3066 27.8516V11.737C13.3066 11.1387 12.8216 10.6537 12.2233 10.6537Z" fill="url(#paint4_linear)"/>
<path d="M22.2062 10.6537H18.7937C18.1954 10.6537 17.7104 11.1387 17.7104 11.737V27.8516C17.7104 28.4499 18.1954 28.9349 18.7937 28.9349H22.2062C22.8045 28.9349 23.2896 28.4499 23.2896 27.8516V11.737C23.2896 11.1387 22.8045 10.6537 22.2062 10.6537Z" fill="url(#paint5_linear)"/>
<path d="M15.6576 10.6537C15.3703 10.6537 15.0948 10.7678 14.8916 10.971C14.6884 11.1742 14.5743 11.4497 14.5743 11.737V27.8462C14.5743 28.1335 14.6884 28.4091 14.8916 28.6122C15.0948 28.8154 15.3703 28.9295 15.6576 28.9295C15.945 28.9295 16.2205 28.8154 16.4237 28.6122C16.6268 28.4091 16.741 28.1335 16.741 27.8462V11.737C16.741 11.4497 16.6268 11.1742 16.4237 10.971C16.2205 10.7678 15.945 10.6537 15.6576 10.6537Z" fill="url(#paint6_linear)"/>
<path d="M32.368 10.5237H28.9555C28.3572 10.5237 27.8721 11.0087 27.8721 11.607V27.7216C27.8721 28.3199 28.3572 28.8049 28.9555 28.8049H32.368C32.9663 28.8049 33.4513 28.3199 33.4513 27.7216V11.607C33.4513 11.0087 32.9663 10.5237 32.368 10.5237Z" fill="url(#paint7_linear)"/>
<path d="M25.5213 10.5237C25.234 10.5237 24.9584 10.6378 24.7553 10.841C24.5521 11.0441 24.438 11.3197 24.438 11.607V27.7216C24.438 28.0089 24.5521 28.2845 24.7553 28.4876C24.9584 28.6908 25.234 28.8049 25.5213 28.8049C25.8086 28.8049 26.0842 28.6908 26.2873 28.4876C26.4905 28.2845 26.6046 28.0089 26.6046 27.7216V11.607C26.6046 11.3197 26.4905 11.0441 26.2873 10.841C26.0842 10.6378 25.8086 10.5237 25.5213 10.5237Z" fill="url(#paint8_linear)"/>
<defs>
<linearGradient id="paint0_linear" x1="12.4246" y1="7.32278" x2="5.47297" y2="14.489" gradientUnits="userSpaceOnUse">
<stop stop-color="#19B9FB"/>
<stop offset="0.473971" stop-color="#1C99F7"/>
<stop offset="1" stop-color="#1F79F3"/>
</linearGradient>
<linearGradient id="paint1_linear" x1="35.0119" y1="7.32278" x2="28.0603" y2="14.489" gradientUnits="userSpaceOnUse">
<stop stop-color="#19B9FB"/>
<stop offset="0.473971" stop-color="#1C99F7"/>
<stop offset="1" stop-color="#1F79F3"/>
</linearGradient>
<linearGradient id="paint2_linear" x1="12.4246" y1="24.4939" x2="5.47297" y2="31.6601" gradientUnits="userSpaceOnUse">
<stop stop-color="#19B9FB"/>
<stop offset="0.473971" stop-color="#1C99F7"/>
<stop offset="1" stop-color="#1F79F3"/>
</linearGradient>
<linearGradient id="paint3_linear" x1="35.0119" y1="24.4939" x2="28.0603" y2="31.6601" gradientUnits="userSpaceOnUse">
<stop stop-color="#19B9FB"/>
<stop offset="0.473971" stop-color="#1C99F7"/>
<stop offset="1" stop-color="#1F79F3"/>
</linearGradient>
<linearGradient id="paint4_linear" x1="12.3284" y1="12.6322" x2="4.98471" y2="14.9425" gradientUnits="userSpaceOnUse">
<stop stop-color="#19B9FB"/>
<stop offset="0.473971" stop-color="#1C99F7"/>
<stop offset="1" stop-color="#1F79F3"/>
</linearGradient>
<linearGradient id="paint5_linear" x1="22.3114" y1="12.6322" x2="14.9677" y2="14.9425" gradientUnits="userSpaceOnUse">
<stop stop-color="#19B9FB"/>
<stop offset="0.473971" stop-color="#1C99F7"/>
<stop offset="1" stop-color="#1F79F3"/>
</linearGradient>
<linearGradient id="paint6_linear" x1="16.3611" y1="12.6316" x2="13.273" y2="13.009" gradientUnits="userSpaceOnUse">
<stop stop-color="#19B9FB"/>
<stop offset="0.473971" stop-color="#1C99F7"/>
<stop offset="1" stop-color="#1F79F3"/>
</linearGradient>
<linearGradient id="paint7_linear" x1="32.4731" y1="12.5022" x2="25.1294" y2="14.8125" gradientUnits="userSpaceOnUse">
<stop stop-color="#19B9FB"/>
<stop offset="0.473971" stop-color="#1C99F7"/>
<stop offset="1" stop-color="#1F79F3"/>
</linearGradient>
<linearGradient id="paint8_linear" x1="26.2248" y1="12.5022" x2="23.1367" y2="12.8795" gradientUnits="userSpaceOnUse">
<stop stop-color="#19B9FB"/>
<stop offset="0.473971" stop-color="#1C99F7"/>
<stop offset="1" stop-color="#1F79F3"/>
</linearGradient>
</defs>
</svg>
