<svg width="21" height="21" viewBox="0 0 21 21" fill="none" xmlns="http://www.w3.org/2000/svg">
<path d="M4.80597 16.2514L5.40458 13.2912L7.77349 15.6601L4.80597 16.2514ZM8.18293 15.7835L8.18279 15.7828L8.18339 15.7858L8.38312 16.0046L8.18339 15.7858L8.18308 15.7843L8.18293 15.7835L8.18293 15.7835Z" fill="#839AB2" stroke="#839AB2"/>
<path d="M15.7626 7.98704C15.7677 7.99196 15.7739 7.99569 15.7807 7.99796L15.7626 7.98704ZM15.7626 7.98704L13.0876 5.31211L13.0877 5.31207L13.0822 5.30673C13.0776 5.30231 13.0741 5.29692 13.072 5.29097L12.6435 5.44757L13.072 5.29097C13.0698 5.28501 13.069 5.27864 13.0696 5.27232C13.0702 5.26601 13.0723 5.25992 13.0756 5.25452C13.0785 5.24986 13.0822 5.24581 13.0866 5.24259C13.5712 4.94908 14.1287 4.79809 14.6952 4.80701C15.1125 4.81873 15.5088 4.99317 15.7992 5.29313C16.0902 5.59367 16.2519 5.99627 16.2495 6.4146L16.2494 6.4146L16.2495 6.42298C16.2556 6.96844 16.1134 7.50532 15.8383 7.97634C15.8345 7.98275 15.8294 7.98822 15.8232 7.99233C15.817 7.99644 15.81 7.99909 15.8026 8.00006C15.7952 8.00104 15.7878 8.00032 15.7807 7.99796L15.6258 8.46046L15.7626 7.98704Z" fill="#839AB2" stroke="#839AB2"/>
<path d="M9.29552 13.9922L9.29535 13.9921L7.06687 11.7636C6.98431 11.6784 6.93811 11.5643 6.93811 11.4456C6.93811 11.3269 6.98431 11.2129 7.06687 11.1276L11.274 6.92047L11.2742 6.92034C11.2812 6.91332 11.2895 6.90775 11.2987 6.90395C11.3078 6.90015 11.3177 6.89819 11.3276 6.89819C11.3375 6.89819 11.3474 6.90015 11.3565 6.90395C11.3657 6.90775 11.374 6.91332 11.381 6.92034L11.3812 6.92047L14.1384 9.6777L14.1385 9.67783C14.1455 9.68484 14.1511 9.69317 14.1549 9.70234C14.1587 9.71151 14.1607 9.72134 14.1607 9.73126C14.1607 9.74118 14.1587 9.75101 14.1549 9.76018C14.1511 9.76935 14.1455 9.77768 14.1385 9.7847L14.1379 9.78529L9.94214 13.9922C9.94206 13.9923 9.94199 13.9924 9.94191 13.9925C9.89952 14.0348 9.8492 14.0685 9.79383 14.0914L9.79382 14.0914C9.73835 14.1144 9.67888 14.1262 9.61883 14.1262C9.55878 14.1262 9.49931 14.1144 9.44384 14.0914L9.44384 14.0914C9.38837 14.0684 9.33797 14.0347 9.29552 13.9922Z" fill="#839AB2" stroke="#839AB2"/>
</svg>
