<svg width="16" height="17" viewBox="0 0 16 17" fill="none" xmlns="http://www.w3.org/2000/svg">
<path d="M8.00006 10.4996C9.10463 10.4996 10.0001 9.60418 10.0001 8.49961C10.0001 7.39505 9.10463 6.49961 8.00006 6.49961C6.89549 6.49961 6.00006 7.39505 6.00006 8.49961C6.00006 9.60418 6.89549 10.4996 8.00006 10.4996Z" fill="#1B57C4"/>
<path d="M12.3382 4.91135C10.9719 3.97447 9.50975 3.49947 7.99256 3.49947C6.62725 3.49947 5.29631 3.90572 4.03662 4.70197C2.76631 5.50666 1.521 6.96822 0.500061 8.49947C1.32569 9.87447 2.45506 11.2882 3.63131 12.0988C4.98068 13.0282 6.44787 13.4995 7.99256 13.4995C9.52381 13.4995 10.9879 13.0285 12.3457 12.0998C13.541 11.2807 14.6785 9.86884 15.5001 8.49947C14.6757 7.14228 13.5344 5.73197 12.3382 4.91135ZM8.00006 11.4995C7.40672 11.4995 6.8267 11.3235 6.33335 10.9939C5.84 10.6642 5.45548 10.1957 5.22842 9.64752C5.00136 9.09934 4.94195 8.49614 5.0577 7.9142C5.17346 7.33226 5.45918 6.79771 5.87874 6.37815C6.2983 5.95859 6.83285 5.67287 7.41479 5.55712C7.99673 5.44136 8.59993 5.50077 9.14811 5.72783C9.69629 5.9549 10.1648 6.33941 10.4945 6.83276C10.8241 7.32611 11.0001 7.90613 11.0001 8.49947C10.9991 9.29484 10.6828 10.0574 10.1204 10.6198C9.55796 11.1822 8.79543 11.4986 8.00006 11.4995Z" fill="#1B57C4"/>
</svg>
