<svg width="32" height="32" viewBox="0 0 32 32" fill="none" xmlns="http://www.w3.org/2000/svg">
<path d="M25.2 12.0001C25.6115 11.9982 25.9434 11.663 25.9414 11.2516C25.9405 11.0561 25.8628 10.8688 25.725 10.7301L18.27 3.27013C17.9781 2.98018 17.5064 2.98178 17.2164 3.27371C17.0775 3.41362 16.9996 3.60293 17 3.80013V7.43013V7.43012C17.0028 9.95487 19.0502 12.0001 21.575 12.0001L25.2 12.0001Z" fill="#839AB2"/>
<path d="M13.42 2H9.575C7.04829 2 5 4.04829 5 6.575V25.425V25.425C5 27.9517 7.0483 30 9.575 30H22.425C24.9517 30 27 27.9517 27 25.425V15.58C27 14.7074 26.2926 14 25.42 14H21.575C17.9437 14 15 11.0563 15 7.425V3.58C15 2.70739 14.2926 2 13.42 2L13.42 2ZM11 10C12.1046 10 13 10.8954 13 12C13 13.1046 12.1046 14 11 14C9.89543 14 9 13.1046 9 12C9 10.8954 9.89543 10 11 10ZM17 26H10C9.44771 26 9 25.5523 9 25C9 24.4477 9.44772 24 10 24H17C17.5523 24 18 24.4477 18 25C18 25.5523 17.5523 26 17 26ZM22 22H10C9.44771 22 9 21.5523 9 21C9 20.4477 9.44772 20 10 20H22C22.5523 20 23 20.4477 23 21C23 21.5523 22.5523 22 22 22ZM22 16C22.5523 16 23 16.4477 23 17C23 17.5523 22.5523 18 22 18H10C9.44771 18 9 17.5523 9 17C9 16.4477 9.44772 16 10 16H22Z" fill="#839AB2"/>
</svg>
