<svg width="32" height="32" viewBox="0 0 32 32" fill="none" xmlns="http://www.w3.org/2000/svg">
<path d="M9.60005 7.2V7.2C9.60005 5.43269 11.0327 4 12.8 4H24C25.7674 4 27.2 5.43269 27.2 7.2V21.6C27.2 23.3673 25.7674 24.8 24 24.8H22.4C22.4 26.5673 20.9674 28 19.2 28H8.00005H8.00005C6.23274 28 4.80005 26.5673 4.80005 24.8V10.4C4.80005 8.63269 6.23274 7.2 8.00005 7.2H9.60005L9.60005 7.2ZM11.2 7.2H19.2C20.9674 7.2 22.4 8.63269 22.4 10.4V23.2H24C24.8837 23.2 25.6 22.4837 25.6 21.6V7.2C25.6 6.31634 24.8837 5.6 24 5.6H12.8C11.9164 5.6 11.2 6.31634 11.2 7.2ZM8.00005 8.8C7.11639 8.8 6.40005 9.51634 6.40005 10.4V24.8C6.40005 25.6837 7.11639 26.4 8.00005 26.4H19.2C20.0837 26.4 20.8 25.6837 20.8 24.8V10.4C20.8 9.51634 20.0837 8.8 19.2 8.8H8.00005V8.8ZM9.60005 13.6C9.15822 13.6 8.80005 13.2418 8.80005 12.8C8.80005 12.3582 9.15822 12 9.60005 12H17.6C18.0419 12 18.4 12.3582 18.4 12.8C18.4 13.2418 18.0419 13.6 17.6 13.6H9.60005ZM9.60005 16.8C9.15822 16.8 8.80005 16.4418 8.80005 16C8.80005 15.5582 9.15822 15.2 9.60005 15.2H17.6C18.0419 15.2 18.4 15.5582 18.4 16C18.4 16.4418 18.0419 16.8 17.6 16.8H9.60005ZM9.60005 20C9.15822 20 8.80005 19.6418 8.80005 19.2C8.80005 18.7582 9.15822 18.4 9.60005 18.4H17.6C18.0419 18.4 18.4 18.7582 18.4 19.2C18.4 19.6418 18.0419 20 17.6 20H9.60005ZM9.60005 23.2C9.15822 23.2 8.80005 22.8418 8.80005 22.4C8.80005 21.9582 9.15822 21.6 9.60005 21.6H17.6C18.0419 21.6 18.4 21.9582 18.4 22.4C18.4 22.8418 18.0419 23.2 17.6 23.2H9.60005Z" fill="white"/>
</svg>
