<svg width="24" height="24" viewBox="0 0 24 24" fill="none" xmlns="http://www.w3.org/2000/svg">
<path d="M7.2 5.4V5.4C7.2 4.07452 8.27452 3 9.6 3H18C19.3255 3 20.4 4.07452 20.4 5.4V16.2C20.4 17.5255 19.3255 18.6 18 18.6H16.8C16.8 19.9255 15.7255 21 14.4 21H6H6C4.67452 21 3.6 19.9255 3.6 18.6V7.8C3.6 6.47452 4.67452 5.4 6 5.4H7.2L7.2 5.4ZM8.4 5.4H14.4C15.7255 5.4 16.8 6.47452 16.8 7.8V17.4H18C18.6627 17.4 19.2 16.8627 19.2 16.2V5.4C19.2 4.73726 18.6627 4.2 18 4.2H9.6C8.93726 4.2 8.4 4.73726 8.4 5.4ZM6 6.6C5.33726 6.6 4.8 7.13726 4.8 7.8V18.6C4.8 19.2627 5.33726 19.8 6 19.8H14.4C15.0627 19.8 15.6 19.2627 15.6 18.6V7.8C15.6 7.13726 15.0627 6.6 14.4 6.6H6V6.6ZM7.2 10.2C6.86863 10.2 6.6 9.93137 6.6 9.6C6.6 9.26863 6.86863 9 7.2 9H13.2C13.5314 9 13.8 9.26863 13.8 9.6C13.8 9.93137 13.5314 10.2 13.2 10.2H7.2ZM7.2 12.6C6.86863 12.6 6.6 12.3314 6.6 12C6.6 11.6686 6.86863 11.4 7.2 11.4H13.2C13.5314 11.4 13.8 11.6686 13.8 12C13.8 12.3314 13.5314 12.6 13.2 12.6H7.2ZM7.2 15C6.86863 15 6.6 14.7314 6.6 14.4C6.6 14.0686 6.86863 13.8 7.2 13.8H13.2C13.5314 13.8 13.8 14.0686 13.8 14.4C13.8 14.7314 13.5314 15 13.2 15H7.2ZM7.2 17.4C6.86863 17.4 6.6 17.1314 6.6 16.8C6.6 16.4686 6.86863 16.2 7.2 16.2H13.2C13.5314 16.2 13.8 16.4686 13.8 16.8C13.8 17.1314 13.5314 17.4 13.2 17.4H7.2Z" fill="#1B57C4"/>
</svg>
