<svg width="48" height="49" viewBox="0 0 48 49" fill="none" xmlns="http://www.w3.org/2000/svg">
<path d="M37.8 18.5002C38.4172 18.4972 38.9151 17.9945 38.9121 17.3773C38.9107 17.0841 38.7941 16.8032 38.5875 16.5952L27.405 5.40519C26.9671 4.97027 26.2596 4.97267 25.8246 5.41056C25.6162 5.62044 25.4994 5.90439 25.5 6.20019V11.6452V11.6452C25.5041 15.4323 28.5754 18.5002 32.3625 18.5002L37.8 18.5002Z" fill="#1B57C4"/>
<path d="M20.13 3.5H14.3625C10.5724 3.5 7.5 6.57244 7.5 10.3625V38.6375V38.6375C7.5 42.4276 10.5724 45.5 14.3625 45.5H33.6375C37.4276 45.5 40.5 42.4276 40.5 38.6375V23.87C40.5 22.5611 39.4389 21.5 38.13 21.5H32.3625C26.9156 21.5 22.5 17.0844 22.5 11.6375V5.87C22.5 4.56109 21.4389 3.5 20.13 3.5L20.13 3.5ZM16.5 15.5C18.1569 15.5 19.5 16.8431 19.5 18.5C19.5 20.1569 18.1569 21.5 16.5 21.5C14.8431 21.5 13.5 20.1569 13.5 18.5C13.5 16.8431 14.8431 15.5 16.5 15.5ZM25.5 39.5H15C14.1716 39.5 13.5 38.8284 13.5 38C13.5 37.1716 14.1716 36.5 15 36.5H25.5C26.3284 36.5 27 37.1716 27 38C27 38.8284 26.3284 39.5 25.5 39.5ZM33 33.5H15C14.1716 33.5 13.5 32.8284 13.5 32C13.5 31.1716 14.1716 30.5 15 30.5H33C33.8284 30.5 34.5 31.1716 34.5 32C34.5 32.8284 33.8284 33.5 33 33.5ZM33 24.5C33.8284 24.5 34.5 25.1716 34.5 26C34.5 26.8284 33.8284 27.5 33 27.5H15C14.1716 27.5 13.5 26.8284 13.5 26C13.5 25.1716 14.1716 24.5 15 24.5H33Z" fill="#1B57C4"/>
</svg>
