<svg width="25" height="24" viewBox="0 0 25 24" fill="none" xmlns="http://www.w3.org/2000/svg">
<path d="M3.87375 1.5H2.87625C2.32327 1.5 1.875 1.94827 1.875 2.50125V16.9988C1.875 17.5517 2.32327 18 2.87625 18H3.87375C4.42673 18 4.875 17.5517 4.875 16.9988V2.50125C4.875 1.94827 4.42673 1.5 3.87375 1.5Z" fill="#839AB2"/>
<path d="M21.8738 1.5H20.8762C20.3233 1.5 19.875 1.94827 19.875 2.50125V16.9988C19.875 17.5517 20.3233 18 20.8762 18H21.8738C22.4267 18 22.875 17.5517 22.875 16.9988V2.50125C22.875 1.94827 22.4267 1.5 21.8738 1.5Z" fill="#839AB2"/>
<path d="M5.4075 19.8749C5.25838 20.02 5.13985 20.1934 5.05892 20.385C4.97798 20.5766 4.93628 20.7825 4.93628 20.9906C4.93628 21.1986 4.97798 21.4045 5.05892 21.5961C5.13985 21.7877 5.25838 21.9612 5.4075 22.1062C5.69295 22.364 6.06656 22.5024 6.45111 22.4926C6.83566 22.4829 7.20176 22.3257 7.47375 22.0537L8.59875 20.9287C8.80956 20.7168 9.07755 20.571 9.36992 20.5091C9.6623 20.4472 9.96639 20.4718 10.245 20.5799C11.3288 21.0005 12.5115 21.0972 13.6492 20.8582C14.787 20.6192 15.8308 20.0548 16.6537 19.2337C17.5714 18.3338 18.1726 17.1608 18.3673 15.8904C18.562 14.6201 18.3397 13.3208 17.7337 12.1874C17.0948 10.9949 16.0744 10.0513 14.8356 9.50736C13.5969 8.96347 12.2116 8.85082 10.9012 9.18743C10.3872 9.31359 9.89446 9.51448 9.43875 9.78368C8.19309 10.4949 7.24342 11.6288 6.76186 12.9799C6.2803 14.331 6.29871 15.81 6.81375 17.1487C6.92473 17.43 6.95156 17.7375 6.89097 18.0337C6.83039 18.33 6.685 18.6023 6.4725 18.8174L5.4075 19.8749ZM9.34875 14.6737C9.67875 13.0049 10.9612 12.0037 12.3937 12.0037C12.7878 12.0034 13.1781 12.0807 13.5423 12.2313C13.9065 12.3818 14.2374 12.6027 14.5162 12.8812C14.876 13.2443 15.1378 13.6926 15.2772 14.1844C15.4166 14.6761 15.4289 15.1952 15.3132 15.6931C15.1974 16.1909 14.9573 16.6513 14.6153 17.0311C14.2733 17.4109 13.8405 17.6978 13.3575 17.8649C13.2412 17.9099 13.1137 17.9474 12.9825 17.9812L12.8737 18.0149C12.3969 18.1264 11.8983 18.1023 11.4344 17.9452C10.9705 17.7881 10.5598 17.5045 10.2487 17.1262C9.88828 16.8392 9.61367 16.4586 9.45493 16.0261C9.2962 15.5936 9.25947 15.1257 9.34875 14.6737Z" fill="#839AB2"/>
<path d="M11.31 7.58625C11.6702 7.53426 12.0336 7.50794 12.3975 7.5075C12.7475 7.50711 13.097 7.53092 13.4437 7.57875C13.4975 7.58691 13.5524 7.58328 13.6046 7.56813C13.6568 7.55297 13.7051 7.52664 13.7461 7.49097C13.7871 7.4553 13.8199 7.41114 13.8421 7.36154C13.8644 7.31195 13.8756 7.25811 13.875 7.20375V2.50125C13.875 2.2357 13.7695 1.98103 13.5817 1.79326C13.394 1.60549 13.1393 1.5 12.8737 1.5H11.8762C11.6107 1.5 11.356 1.60549 11.1682 1.79326C10.9805 1.98103 10.875 2.2357 10.875 2.50125V7.20375C10.8732 7.2591 10.8836 7.31417 10.9056 7.365C10.9276 7.41583 10.9606 7.46116 11.0022 7.49773C11.0438 7.5343 11.0929 7.5612 11.1461 7.57651C11.1994 7.59181 11.2553 7.59514 11.31 7.58625Z" fill="#839AB2"/>
<path d="M7.035 9.78C7.5163 9.27903 8.06388 8.84627 8.6625 8.49375C8.82375 8.4 8.98875 8.31375 9.15375 8.235C9.22254 8.20418 9.28044 8.15335 9.31991 8.08913C9.35937 8.02491 9.37857 7.95029 9.375 7.875V2.50125C9.375 2.36976 9.3491 2.23957 9.29878 2.11809C9.24847 1.99661 9.17472 1.88623 9.08174 1.79326C8.98877 1.70028 8.87839 1.62653 8.75691 1.57622C8.63543 1.5259 8.50524 1.5 8.37375 1.5H7.37625C7.1107 1.5 6.85603 1.60549 6.66826 1.79326C6.48049 1.98103 6.375 2.2357 6.375 2.50125V9.51C6.3692 9.58892 6.38853 9.66766 6.4302 9.73493C6.47187 9.80221 6.53376 9.85458 6.60701 9.88454C6.68025 9.91451 6.7611 9.92053 6.83797 9.90175C6.91485 9.88297 6.98382 9.84036 7.035 9.78Z" fill="#839AB2"/>
<path d="M17.7225 9.7275C17.7744 9.7848 17.8427 9.82466 17.9182 9.84162C17.9936 9.85859 18.0724 9.85183 18.1438 9.82227C18.2153 9.79271 18.2758 9.7418 18.3172 9.6765C18.3586 9.61121 18.3788 9.53471 18.375 9.4575V2.50125C18.375 2.2357 18.2695 1.98103 18.0817 1.79326C17.894 1.60549 17.6393 1.5 17.3738 1.5H16.3763C16.1107 1.5 15.856 1.60549 15.6683 1.79326C15.4805 1.98103 15.375 2.2357 15.375 2.50125V7.875C15.3747 7.94819 15.3959 8.01985 15.4359 8.08116C15.4759 8.14246 15.5329 8.19072 15.6 8.22C16.3903 8.59432 17.1087 9.10458 17.7225 9.7275Z" fill="#839AB2"/>
</svg>
