<svg width="48" height="49" viewBox="0 0 48 49" fill="none" xmlns="http://www.w3.org/2000/svg">
<path d="M42 26.9181V12.6681C41.995 11.6761 41.7017 10.7069 41.1557 9.87863C40.6097 9.05036 39.8347 8.39872 38.925 8.00308L32.8125 5.33308C30.0305 4.12396 27.0296 3.5 23.9962 3.5C20.9629 3.5 17.9619 4.12396 15.18 5.33308L9.07497 8.00308C8.16292 8.39974 7.38629 9.0537 6.84015 9.88491C6.294 10.7161 6.00203 11.6885 5.99997 12.6831V26.9331C6.00024 29.0243 6.48933 31.0866 7.42821 32.9552C8.36709 34.8238 9.72976 36.4471 11.4075 37.6956L20.3175 44.3256C21.3809 45.1164 22.6709 45.5435 23.9962 45.5435C25.3215 45.5435 26.6115 45.1164 27.675 44.3256L36.585 37.6956C38.2661 36.4464 39.6314 34.8211 40.5717 32.9496C41.512 31.0781 42.0012 29.0125 42 26.9181ZM21.12 6.66808L21.2475 6.60808C21.6114 6.45632 22.0204 6.45392 22.386 6.60141C22.7516 6.7489 23.0445 7.03442 23.2013 7.39619C23.358 7.75797 23.366 8.1669 23.2235 8.53453C23.081 8.90216 22.7996 9.19891 22.44 9.36058L22.3125 9.42058C21.9486 9.57235 21.5396 9.57475 21.1739 9.42726C20.8083 9.27977 20.5154 8.99425 20.3587 8.63247C20.202 8.2707 20.194 7.86176 20.3364 7.49414C20.4789 7.12651 20.7604 6.82976 21.12 6.66808ZM11.205 14.1156C10.8613 14.1144 10.5284 13.9952 10.2621 13.778C9.99576 13.5608 9.81209 13.2587 9.74182 12.9223C9.67155 12.5859 9.71894 12.2355 9.87606 11.9298C10.0332 11.6242 10.2905 11.3817 10.605 11.2431L16.605 8.61808C16.9689 8.46632 17.3779 8.46392 17.7435 8.61141C18.1091 8.7589 18.402 9.04442 18.5588 9.40619C18.7155 9.76797 18.7235 10.1769 18.581 10.5445C18.4385 10.9122 18.1571 11.2089 17.7975 11.3706L11.7975 13.9956C11.6102 14.0754 11.4086 14.1162 11.205 14.1156Z" fill="#1B57C4"/>
</svg>
