<svg width="25" height="24" viewBox="0 0 25 24" fill="none" xmlns="http://www.w3.org/2000/svg">
<path d="M21.125 13.209V6.08404C21.1225 5.58803 20.9758 5.10345 20.7029 4.68932C20.4299 4.27518 20.0424 3.94936 19.5875 3.75154L16.5312 2.41654C15.1403 1.81198 13.6398 1.5 12.1231 1.5C10.6064 1.5 9.10598 1.81198 7.715 2.41654L4.6625 3.75154C4.20647 3.94987 3.81816 4.27685 3.54509 4.69245C3.27202 5.10806 3.12603 5.59426 3.125 6.09154V13.2165C3.12514 14.2622 3.36968 15.2933 3.83912 16.2276C4.30856 17.1619 4.98989 17.9736 5.82875 18.5978L10.2837 21.9128C10.8155 22.3082 11.4605 22.5217 12.1231 22.5217C12.7858 22.5217 13.4308 22.3082 13.9625 21.9128L18.4175 18.5978C19.2581 17.9732 19.9407 17.1605 20.4109 16.2248C20.881 15.2891 21.1256 14.2562 21.125 13.209ZM10.685 3.08404L10.7487 3.05404C10.9307 2.97816 11.1352 2.97696 11.318 3.0507C11.5008 3.12445 11.6473 3.26721 11.7256 3.4481C11.804 3.62898 11.808 3.83345 11.7368 4.01727C11.6655 4.20108 11.5248 4.34945 11.345 4.43029L11.2812 4.46029C11.0993 4.53618 10.8948 4.53737 10.712 4.46363C10.5292 4.38988 10.3827 4.24712 10.3044 4.06624C10.226 3.88535 10.222 3.68088 10.2932 3.49707C10.3645 3.31326 10.5052 3.16488 10.685 3.08404ZM5.7275 6.80779C5.55566 6.8072 5.38923 6.74762 5.25606 6.63901C5.12289 6.5304 5.03106 6.37936 4.99592 6.21114C4.96079 6.04293 4.98448 5.86776 5.06304 5.71492C5.1416 5.56209 5.27026 5.44087 5.4275 5.37154L8.4275 4.05904C8.60944 3.98316 8.81395 3.98196 8.99677 4.0557C9.17959 4.12945 9.32602 4.27221 9.40439 4.4531C9.48276 4.63398 9.48676 4.83845 9.41552 5.02227C9.34429 5.20608 9.20355 5.35445 9.02375 5.43529L6.02375 6.74779C5.93009 6.78769 5.8293 6.8081 5.7275 6.80779Z" fill="#839AB2"/>
</svg>
