<svg width="91" height="110" viewBox="0 0 91 110" fill="none" xmlns="http://www.w3.org/2000/svg">
<path d="M84.9403 31.6134H25.7034C23.831 31.6134 22.3132 33.1313 22.3132 35.0036V69.484C22.3132 71.3564 23.831 72.8743 25.7034 72.8743H84.9403C86.8127 72.8743 88.3306 71.3564 88.3306 69.484V35.0036C88.3306 33.1313 86.8127 31.6134 84.9403 31.6134Z" fill="white"/>
<path d="M84.9295 75.0545H25.6926C24.2161 75.0516 22.8009 74.4638 21.7568 73.4197C20.7128 72.3757 20.125 70.9605 20.1221 69.484V35.0145C20.1249 33.537 20.7124 32.1206 21.7561 31.0749C22.7999 30.0291 24.2151 29.4389 25.6926 29.4331H84.9295C86.4079 29.436 87.8247 30.0253 88.8691 31.0717C89.9135 32.1181 90.5 33.5361 90.5 35.0145V69.484C90.5 70.2155 90.3559 70.9399 90.0759 71.6157C89.796 72.2915 89.3857 72.9057 88.8684 73.4229C88.3512 73.9402 87.7371 74.3505 87.0612 74.6304C86.3854 74.9104 85.661 75.0545 84.9295 75.0545ZM25.6926 33.7936C25.3706 33.7964 25.0629 33.9263 24.8363 34.155C24.6097 34.3836 24.4825 34.6926 24.4825 35.0145V69.484C24.4881 69.8031 24.6174 70.1077 24.8431 70.3334C25.0689 70.5592 25.3734 70.6884 25.6926 70.694H84.9295C85.2504 70.694 85.5582 70.5665 85.7851 70.3396C86.012 70.1127 86.1395 69.8049 86.1395 69.484V35.0145C86.1395 34.6926 86.0124 34.3836 85.7858 34.155C85.5592 33.9263 85.2514 33.7964 84.9295 33.7936H25.6926Z" fill="#113D6B"/>
<path d="M38.207 52.4454H27.4585V56.8059H38.207V52.4454Z" fill="#113D6B"/>
<path d="M46.3393 61.8969H27.4585V66.2573H46.3393V61.8969Z" fill="#113D6B"/>
<path d="M53.0436 52.4454H42.2841V56.8059H53.0436V52.4454Z" fill="#113D6B"/>
<path d="M67.8692 52.4454H57.1206V56.8059H67.8692V52.4454Z" fill="#113D6B"/>
<path d="M82.6947 52.4454H71.9462V56.8059H82.6947V52.4454Z" fill="#113D6B"/>
<path d="M86.0632 40.1489H24.7551V47.4309H86.0632V40.1489Z" fill="#5EB4E7"/>
<path fill-rule="evenodd" clip-rule="evenodd" d="M53.9157 3.27039H3.77032V105.741H53.9157V3.27039ZM8.44693 16.3736H50.3292V92.3438H8.44693V16.3736Z" fill="white"/>
<path opacity="0.7" d="M50.3292 16.3735H8.44696V92.3437H50.3292V16.3735Z" fill="#F8C44F"/>
<path d="M52.782 109.557H6.016C4.55207 109.554 3.14908 108.97 2.11495 107.934C1.08081 106.898 0.499997 105.494 0.5 104.03V5.51599C0.502881 4.05394 1.08497 2.65256 2.11879 1.61874C3.15261 0.584916 4.55396 0.00288089 6.016 0H52.782C54.244 0.00288089 55.6454 0.584916 56.6792 1.61874C57.713 2.65256 58.2951 4.05394 58.298 5.51599V79.3386H53.9375V5.51599C53.9375 5.20952 53.8158 4.91557 53.5991 4.69886C53.3824 4.48216 53.0884 4.36047 52.782 4.36047H6.016C5.70954 4.36047 5.41562 4.48216 5.19891 4.69886C4.98221 4.91557 4.86047 5.20952 4.86047 5.51599V104.03C4.86045 104.337 4.98185 104.632 5.19825 104.851C5.41464 105.069 5.70854 105.193 6.016 105.196H52.782C53.0894 105.193 53.3833 105.069 53.5997 104.851C53.8161 104.632 53.9375 104.337 53.9375 104.03V78.7936H58.298V104.03C58.298 105.494 57.7172 106.898 56.6831 107.934C55.6489 108.97 54.2459 109.554 52.782 109.557Z" fill="#113D6B"/>
<path d="M38.3271 7.4563H20.4709V11.8168H38.3271V7.4563Z" fill="#113D6B"/>
<path d="M31.5684 96.4862H27.2079V100.847H31.5684V96.4862Z" fill="#113D6B"/>
</svg>
