<svg width="113" height="112" viewBox="0 0 113 112" fill="none" xmlns="http://www.w3.org/2000/svg">
<path d="M112.498 91.0005C112.498 102.599 87.4267 112 56.4998 112C25.573 112 0.501465 102.599 0.501465 91.0005V84.0007H112.498V91.0005Z" fill="#1D3285"/>
<path d="M56.4998 105C87.4269 105 112.498 95.5986 112.498 84.001C112.498 72.4033 87.4269 63.0016 56.4998 63.0016C25.5728 63.0016 0.501465 72.4033 0.501465 84.001C0.501465 95.5986 25.5728 105 56.4998 105Z" fill="#3353B6"/>
<path d="M112.498 34.9991C112.498 23.4022 87.4267 13.9998 56.4998 13.9998C25.573 13.9998 0.501465 23.4022 0.501465 34.9991V50.7469C0.501465 39.1483 25.573 29.7475 56.4998 29.7475C87.4267 29.7475 112.498 39.1483 112.498 50.7469V34.9991Z" fill="#3353B6"/>
<path d="M56.5005 13.9998V29.7475C87.4273 29.7475 112.499 39.1483 112.499 50.7469V34.9991C112.499 23.4022 87.4273 13.9998 56.5005 13.9998Z" fill="#1D3285"/>
<path d="M112.498 38.499C112.498 26.9021 87.4267 17.4996 56.4998 17.4996C25.573 17.4996 0.501465 26.9021 0.501465 38.499V54.2468C0.501465 42.6481 25.573 33.2474 56.4998 33.2474C87.4267 33.2474 112.498 42.6481 112.498 54.2468V38.499Z" fill="#DF751B"/>
<path d="M27.4229 15.3998L56.4982 3.76965L85.5754 15.3998L56.4982 27.03L27.4229 15.3998Z" fill="#EBF3FD"/>
<path d="M56.4998 0L18.001 15.3995L56.4998 30.8008L94.9987 15.3995L56.4998 0ZM36.8479 15.3995L56.4981 7.54051L76.15 15.3995L56.4981 23.2603L36.8479 15.3995Z" fill="#B1CDFC"/>
<path d="M56.4998 30.8009L18.001 15.3997V82.6012L56.4998 98.0007V30.8009Z" fill="#7598D9"/>
<path d="M56.5005 30.8009V98.0007L94.9994 82.6012V15.3997L56.5005 30.8009Z" fill="#85ABEF"/>
<path d="M48.5901 64.5607L33.7505 47.9012V55.923C14.1721 52.6523 0.501465 45.3077 0.501465 36.7505V52.4983C0.501465 61.0556 14.1738 68.3983 33.7505 71.6707V79.4002L48.5901 68.0606V64.5607Z" fill="#3353B6"/>
<path d="M48.5901 68.0604L33.7505 51.4009V59.4227C14.1721 56.1521 0.501465 48.8075 0.501465 40.2502V55.9981C0.501465 64.5553 14.1738 71.8981 33.7505 75.1705V82.9L48.5901 68.0604Z" fill="#E39C26"/>
<path d="M67.0015 57.3754V73.1232C92.906 71.2787 112.498 62.7495 112.498 52.4983V36.7505C112.498 47.0034 92.906 55.5345 67.0015 57.3754Z" fill="#1D3285"/>
<path d="M67.0015 60.8752V76.6229C92.906 74.7785 112.498 66.2493 112.498 55.9981V40.2502C112.498 50.5032 92.906 59.0342 67.0015 60.8752Z" fill="#E39C26"/>
</svg>
