<svg width="25" height="24" viewBox="0 0 25 24" fill="none" xmlns="http://www.w3.org/2000/svg">
<path d="M10.3964 12.3536L10.3964 12.3536C10.3027 12.2599 10.25 12.1327 10.25 12C10.25 11.8674 10.3027 11.7402 10.3964 11.6465L10.3964 11.6465L14.3965 7.64645L14.3965 7.64644C14.5917 7.45119 14.9083 7.45119 15.1036 7.64643C15.2988 7.8417 15.2988 8.1583 15.1036 8.35357C15.1036 8.35358 15.1036 8.35358 15.1036 8.35358L11.8107 11.6465L11.4571 12L11.8107 12.3536L15.1036 15.6465C15.2988 15.8418 15.2988 16.1584 15.1036 16.3536C14.9084 16.5489 14.5917 16.5489 14.3965 16.3536L10.3964 12.3536Z" fill="#919191" stroke="white"/>
</svg>
