<svg width="110" height="161" viewBox="0 0 110 161" fill="none" xmlns="http://www.w3.org/2000/svg">
<path d="M28.622 144.25C29.966 144.754 31.03 145.636 31.814 146.896C32.598 148.156 32.99 149.556 32.99 151.096C32.99 153.896 32.15 156.08 30.47 157.648C28.818 159.216 26.48 160 23.456 160H11.57V131.44H22.49C25.206 131.44 27.376 132.126 29 133.498C30.624 134.87 31.436 136.886 31.436 139.546C31.436 141.59 30.498 143.158 28.622 144.25ZM21.902 136.858H17.45V142.234H21.902C24.338 142.234 25.556 141.338 25.556 139.546C25.556 137.754 24.338 136.858 21.902 136.858ZM22.868 154.624C24.1 154.624 25.108 154.33 25.892 153.742C26.704 153.154 27.11 152.272 27.11 151.096C27.11 149.92 26.718 149.052 25.934 148.492C25.15 147.904 24.17 147.61 22.994 147.61H17.45V154.624H22.868Z" fill="#3156A0"/>
<path d="M48.4654 137.992C51.8814 137.992 54.6814 139.028 56.8654 141.1C59.0494 143.172 60.1414 145.902 60.1414 149.29V160H54.8494V157.564C53.3374 159.58 51.2094 160.588 48.4654 160.588C45.2454 160.588 42.5014 159.496 40.2334 157.312C37.9654 155.128 36.8314 152.454 36.8314 149.29C36.8314 146.126 37.9654 143.452 40.2334 141.268C42.5014 139.084 45.2454 137.992 48.4654 137.992ZM44.2234 153.574C45.4274 154.722 46.8694 155.296 48.5494 155.296C50.2294 155.296 51.6574 154.722 52.8334 153.574C54.0374 152.398 54.6394 150.97 54.6394 149.29C54.6394 147.61 54.0374 146.196 52.8334 145.048C51.6574 143.872 50.2294 143.284 48.5494 143.284C46.8694 143.284 45.4274 143.872 44.2234 145.048C43.0474 146.196 42.4594 147.61 42.4594 149.29C42.4594 150.97 43.0474 152.398 44.2234 153.574Z" fill="#3156A0"/>
<path d="M75.8609 137.992C79.1649 137.992 81.7129 138.958 83.5049 140.89C85.2969 142.794 86.1928 145.23 86.1928 148.198V160H80.5648V148.954C80.5648 147.19 80.1729 145.804 79.3889 144.796C78.6049 143.788 77.4289 143.284 75.8609 143.284C74.2929 143.284 73.1169 143.788 72.3329 144.796C71.5489 145.776 71.1569 147.162 71.1569 148.954V160H65.5289V131.44H71.1569V139.462C72.5849 138.482 74.1529 137.992 75.8609 137.992Z" fill="#3156A0"/>
<path d="M96.6148 131.146C97.2308 131.734 97.5388 132.462 97.5388 133.33C97.5388 134.198 97.2308 134.94 96.6148 135.556C95.9988 136.172 95.2568 136.48 94.3888 136.48C93.5208 136.48 92.7788 136.172 92.1628 135.556C91.5468 134.94 91.2388 134.198 91.2388 133.33C91.2388 132.462 91.5468 131.734 92.1628 131.146C92.7788 130.53 93.5208 130.222 94.3888 130.222C95.2568 130.222 95.9988 130.53 96.6148 131.146ZM97.2028 160H91.5748V138.58H97.2028V160Z" fill="#3156A0"/>
<path d="M1 30.4615C1 14.1904 14.1904 1 30.4615 1H79.5385C95.8096 1 109 14.1904 109 30.4615V79.5385C109 95.8096 95.8096 109 79.5385 109H30.4615C14.1904 109 1 95.8096 1 79.5385V30.4615Z" fill="#3156A0" stroke="white" stroke-width="2"/>
<path d="M54.8249 16L93 24.1545C89.1475 62.0909 82.6949 83.6 54.8249 94C25.4055 82.3 20.8525 62.0909 17 24.1545L54.8249 16ZM54.0339 90.75C27.7666 75.5045 24.0847 60.525 21.8305 28.4091H20.6715C23.8236 61.0273 24.9648 75.15 54.0339 90.75Z" fill="white"/>
<path fill-rule="evenodd" clip-rule="evenodd" d="M65.867 34.85C69.0735 34.85 71.0412 39.5475 72.353 42.0827L74.0291 40.9642C74.9036 40.4423 75.9968 40.666 76.5798 41.5607C77.2356 42.1572 76.7984 43.5739 75.9968 44.0959L74.2477 45.2143C75.0494 46.0345 76.2154 47.6749 76.2154 51.3285C76.2883 55.355 76.2883 59.3814 76.2883 63.4079C76.2883 64.1535 75.7052 64.75 74.9765 64.75H69.1464C68.4177 64.75 67.8346 64.1535 67.8346 63.4079C67.8346 62.8859 67.8346 62.364 67.8346 61.7675H42.7653C42.7653 62.364 42.7653 62.8859 42.7653 63.4079C42.7653 64.1535 42.1823 64.75 41.4535 64.75H35.6235C34.8947 64.75 34.3117 64.1535 34.3117 63.4079C34.3117 59.3814 34.3117 55.355 34.3117 51.3285C34.3846 47.6749 35.5506 46.0345 36.2793 45.2143L34.5303 44.0959C33.7287 43.5739 33.5101 42.3809 34.0202 41.5607C34.749 40.8151 35.4777 40.2931 36.498 40.9642L38.247 42.0827C39.5588 39.5475 41.5264 34.85 44.733 34.85H65.867ZM59.8183 58.7849C60.1827 58.7849 60.4742 58.5612 60.4742 58.1884V55.9515C60.4742 55.6532 60.1827 55.355 59.8183 55.355H50.7817C50.4173 55.355 50.1258 55.6532 50.1258 55.9515V58.1884C50.1258 58.5612 50.4173 58.7849 50.7817 58.7849H59.8183ZM69.7294 42.3809C68.9278 40.8151 68.199 39.1747 67.3974 37.6088H43.2026C42.4009 39.1747 41.5993 40.8151 40.8705 42.3809C50.3444 44.0213 60.2555 44.0213 69.7294 42.3809ZM37.0081 52.0742C39.7045 52.5961 42.3281 52.9689 44.8787 53.5655C45.5346 53.8637 45.9719 54.4602 46.3362 55.1313C46.482 55.4295 46.482 55.8769 46.4091 56.3243C43.8585 55.9515 41.3807 55.5041 38.9029 55.0567C38.1012 54.7585 37.4454 54.162 37.0081 53.3418C36.9352 52.7453 36.9352 52.2979 37.0081 52.0742ZM73.519 52.0742C70.8954 52.5961 68.2719 52.9689 65.6484 53.5655C65.0654 53.8637 64.5552 54.4602 64.1908 55.1313C64.118 55.4295 64.118 55.8769 64.1908 56.3243C66.6686 55.9515 69.2193 55.5041 71.6971 55.0567C72.4987 54.7585 73.1546 54.162 73.5918 53.3418C73.6647 52.7453 73.6647 52.2979 73.519 52.0742Z" fill="#1F4D9C"/>
</svg>
