<svg width="48" height="49" viewBox="0 0 48 49" fill="none" xmlns="http://www.w3.org/2000/svg">
<path d="M36.1235 8H12.0306C10.0355 8.007 8.12406 8.81633 6.71328 10.2514C5.30249 11.6865 4.50688 13.631 4.5 15.6605V32.2029C4.50688 34.2324 5.30249 36.1768 6.71328 37.6119C8.12406 39.047 10.0355 39.8564 12.0306 39.8634H36.1235C38.1186 39.8564 40.0301 39.047 41.4409 37.6119C42.8516 36.1768 43.6473 34.2324 43.6541 32.2029V15.6605C43.6473 13.631 42.8516 11.6865 41.4409 10.2514C40.0301 8.81633 38.1186 8.007 36.1235 8ZM14.7845 31.7382L11.0257 35.6149C10.4858 35.4162 9.99552 35.0991 9.58954 34.6861C9.18356 34.2731 8.87183 33.7743 8.67644 33.2252L12.4874 29.3485C12.7938 29.0368 13.2093 28.8618 13.6425 28.8618C14.0757 28.8618 14.4912 29.0368 14.7975 29.3485C15.1039 29.6601 15.276 30.0827 15.276 30.5234C15.276 30.9641 15.1039 31.3868 14.7975 31.6984L14.7845 31.7382ZM37.1284 35.6149L33.3174 31.7382C33.0111 31.4266 32.839 31.0039 32.839 30.5632C32.839 30.1225 33.0111 29.6999 33.3174 29.3883C33.6238 29.0767 34.0393 28.9016 34.4725 28.9016C34.9057 28.9016 35.3212 29.0767 35.6275 29.3883L39.4777 33.2252C39.2823 33.7743 38.9706 34.2731 38.5646 34.6861C38.1586 35.0991 37.6683 35.4162 37.1284 35.6149ZM39.7387 16.6429L30.5245 25.6178C28.7146 27.45 26.2651 28.4786 23.7116 28.4786C21.1582 28.4786 18.7087 27.45 16.8988 25.6178L8.41541 16.8421V15.9658C8.41895 15.3486 8.56346 14.7407 8.83752 14.19C9.11159 13.6394 9.50771 13.161 9.99463 12.7928L19.6918 22.7899C20.7681 23.8803 22.2252 24.4926 23.7443 24.4926C25.2633 24.4926 26.7204 23.8803 27.7967 22.7899L38.0942 12.7397C38.6003 13.1062 39.0133 13.5899 39.2993 14.1509C39.5852 14.7118 39.7359 15.3339 39.7387 15.9658V16.6429Z" fill="#1B57C4"/>
</svg>
