<svg width="48" height="49" viewBox="0 0 48 49" fill="none" xmlns="http://www.w3.org/2000/svg">
<path d="M11.325 23.48C10.3231 24.9009 9.44725 26.4066 8.70747 27.98C7.24991 30.8866 6.42431 34.0689 6.28497 37.3175C6.28497 40.79 7.73247 43.16 10.5825 44.36C13.095 45.4175 16.5 45.5 19.8375 45.5H28.1625C33.885 45.5 41.7225 45.5 41.7225 37.3025C41.5818 34.0508 40.7536 30.8658 39.2925 27.9575C38.5527 26.3841 37.6769 24.8784 36.675 23.4575C33.57 19.085 29.8575 16.3925 26.0325 15.68L25.7625 15.6275L25.41 15.5825C24.4746 15.451 23.5254 15.451 22.59 15.5825L22.2375 15.6275L21.9675 15.68C18.1425 16.415 14.4225 19.1075 11.325 23.48ZM22.575 24.5375C22.6718 24.2346 22.8624 23.9703 23.1192 23.7828C23.376 23.5953 23.6857 23.4943 24.0037 23.4943C24.3217 23.4943 24.6314 23.5953 24.8882 23.7828C25.1451 23.9703 25.3356 24.2346 25.4325 24.5375H26.7225C27.1203 24.5375 27.5018 24.6955 27.7831 24.9768C28.0644 25.2581 28.2225 25.6396 28.2225 26.0375C28.2225 26.4353 28.0644 26.8168 27.7831 27.0981C27.5018 27.3794 27.1203 27.5375 26.7225 27.5375H23.0625C22.7567 27.5394 22.4641 27.6618 22.2479 27.8779C22.0317 28.0941 21.9094 28.3868 21.9075 28.6925V29.375C21.9172 29.6754 22.0429 29.9605 22.2582 30.1702C22.4736 30.38 22.7618 30.4982 23.0625 30.5H24.945C26.0463 30.502 27.102 30.9403 27.8808 31.7191C28.6596 32.4979 29.098 33.5536 29.1 34.655V35.3375C29.1072 36.3608 28.7373 37.3509 28.0607 38.1188C27.3842 38.8866 26.4486 39.3783 25.4325 39.5C25.3356 39.8028 25.1451 40.0671 24.8882 40.2546C24.6314 40.4421 24.3217 40.5432 24.0037 40.5432C23.6857 40.5432 23.376 40.4421 23.1192 40.2546C22.8624 40.0671 22.6718 39.8028 22.575 39.5H21.285C20.8871 39.5 20.5056 39.3419 20.2243 39.0606C19.943 38.7793 19.785 38.3978 19.785 38C19.785 37.6021 19.943 37.2206 20.2243 36.9393C20.5056 36.658 20.8871 36.5 21.285 36.5H24.9375C25.2432 36.498 25.5358 36.3757 25.752 36.1595C25.9682 35.9433 26.0905 35.6507 26.0925 35.345V34.6625C26.0925 34.3554 25.971 34.0609 25.7546 33.8431C25.5382 33.6253 25.2445 33.502 24.9375 33.5H23.0625C21.9598 33.498 20.903 33.0586 20.124 32.2782C19.345 31.4977 18.9075 30.4401 18.9075 29.3375V28.655C18.911 27.6405 19.2849 26.6623 19.9588 25.9041C20.6328 25.1459 21.5604 24.6599 22.5675 24.5375H22.575Z" fill="#1B57C4"/>
<path d="M19.74 13.1974C22.507 12.2711 25.5004 12.2711 28.2675 13.1974C28.5363 13.2875 28.8203 13.3235 29.1031 13.3031C29.3859 13.2828 29.6618 13.2067 29.915 13.079C30.1682 12.9514 30.3935 12.7748 30.5781 12.5596C30.7626 12.3443 30.9026 12.0946 30.99 11.8249L32.9175 5.82486C33.0027 5.56201 33.0254 5.28291 32.9839 5.00972C32.9424 4.73653 32.8378 4.47678 32.6784 4.2511C32.5189 4.02541 32.3091 3.84001 32.0655 3.7096C31.8218 3.57919 31.5512 3.50738 31.275 3.49986C30.8039 3.50116 30.3379 3.59747 29.9049 3.78304C29.4719 3.96861 29.0808 4.23963 28.755 4.57986L27.3 6.07986C27.1879 6.19538 27.0434 6.27417 26.8856 6.30581C26.7278 6.33744 26.5641 6.32043 26.4162 6.25704C26.2682 6.19364 26.143 6.08683 26.0571 5.95074C25.9712 5.81465 25.9286 5.65568 25.935 5.49486C25.9514 5.23112 25.9137 4.96681 25.824 4.71822C25.7344 4.46964 25.5948 4.24204 25.4139 4.04946C25.2329 3.85688 25.0145 3.7034 24.7719 3.59849C24.5294 3.49358 24.268 3.43945 24.0037 3.43945C23.7395 3.43945 23.478 3.49358 23.2355 3.59849C22.9929 3.7034 22.7745 3.85688 22.5935 4.04946C22.4126 4.24204 22.273 4.46964 22.1834 4.71822C22.0938 4.96681 22.056 5.23112 22.0725 5.49486C22.0788 5.65568 22.0362 5.81465 21.9503 5.95074C21.8644 6.08683 21.7392 6.19364 21.5912 6.25704C21.4433 6.32043 21.2796 6.33744 21.1218 6.30581C20.964 6.27417 20.8195 6.19538 20.7075 6.07986L19.2525 4.57986C18.9244 4.2385 18.5307 3.96689 18.0951 3.78131C17.6595 3.59573 17.1909 3.5 16.7175 3.49986C16.4402 3.50738 16.1686 3.57996 15.9245 3.71175C15.6804 3.84354 15.4707 4.03085 15.3123 4.25856C15.154 4.48628 15.0513 4.74803 15.0127 5.02271C14.9741 5.29738 15.0005 5.57729 15.09 5.83986L17.0175 11.8399C17.1064 12.1082 17.2475 12.3564 17.4327 12.57C17.6178 12.7837 17.8434 12.9586 18.0964 13.0847C18.3494 13.2109 18.6249 13.2858 18.9069 13.3051C19.189 13.3245 19.4721 13.2878 19.74 13.1974Z" fill="#1B57C4"/>
</svg>
