<svg width="40" height="40" viewBox="0 0 40 40" fill="none" xmlns="http://www.w3.org/2000/svg">
<path d="M9.43749 19.1501C8.60258 20.3342 7.87272 21.589 7.25624 22.9001C6.04161 25.3223 5.35361 27.9742 5.23749 30.6813C5.23749 33.5751 6.44374 35.5501 8.81874 36.5501C10.9125 37.4313 13.75 37.5001 16.5312 37.5001H23.4687C28.2375 37.5001 34.7687 37.5001 34.7687 30.6688C34.6515 27.9591 33.9614 25.3049 32.7437 22.8813C32.1273 21.5702 31.3974 20.3154 30.5625 19.1313C27.975 15.4876 24.8812 13.2438 21.6937 12.6501L21.4687 12.6063L21.175 12.5688C20.3955 12.4593 19.6045 12.4593 18.825 12.5688L18.5312 12.6063L18.3062 12.6501C15.1187 13.2626 12.0187 15.5063 9.43749 19.1501ZM18.8125 20.0313C18.8932 19.779 19.052 19.5587 19.266 19.4025C19.48 19.2462 19.7381 19.162 20.0031 19.162C20.2681 19.162 20.5262 19.2462 20.7402 19.4025C20.9542 19.5587 21.113 19.779 21.1937 20.0313H22.2687C22.6003 20.0313 22.9182 20.163 23.1526 20.3975C23.387 20.6319 23.5187 20.9498 23.5187 21.2813C23.5187 21.6129 23.387 21.9308 23.1526 22.1652C22.9182 22.3997 22.6003 22.5313 22.2687 22.5313H19.2187C18.964 22.533 18.7201 22.6349 18.54 22.8151C18.3598 22.9952 18.2579 23.2391 18.2562 23.4938V24.0626C18.2643 24.313 18.3691 24.5505 18.5485 24.7253C18.728 24.9001 18.9682 24.9986 19.2187 25.0001H20.7875C21.7053 25.0017 22.585 25.3671 23.234 26.0161C23.883 26.6651 24.2483 27.5448 24.25 28.4626V29.0313C24.256 29.8841 23.9477 30.7092 23.384 31.3491C22.8202 31.9889 22.0405 32.3987 21.1937 32.5001C21.113 32.7525 20.9542 32.9727 20.7402 33.129C20.5262 33.2852 20.2681 33.3694 20.0031 33.3694C19.7381 33.3694 19.48 33.2852 19.266 33.129C19.052 32.9727 18.8932 32.7525 18.8125 32.5001H17.7375C17.406 32.5001 17.088 32.3684 16.8536 32.134C16.6192 31.8996 16.4875 31.5816 16.4875 31.2501C16.4875 30.9186 16.6192 30.6006 16.8536 30.3662C17.088 30.1318 17.406 30.0001 17.7375 30.0001H20.7812C21.036 29.9985 21.2799 29.8965 21.46 29.7164C21.6402 29.5362 21.7421 29.2924 21.7437 29.0376V28.4688C21.7437 28.213 21.6425 27.9675 21.4622 27.786C21.2819 27.6045 21.0371 27.5017 20.7812 27.5001H19.2187C18.2999 27.4984 17.4192 27.1323 16.77 26.4819C16.1208 25.8316 15.7562 24.9502 15.7562 24.0313V23.4626C15.7592 22.6172 16.0708 21.8021 16.6324 21.1702C17.194 20.5384 17.9671 20.1334 18.8062 20.0313H18.8125Z" fill="url(#paint0_linear)"/>
<path d="M16.45 10.5813C18.7559 9.80945 21.2504 9.80945 23.5562 10.5813C23.7802 10.6564 24.0169 10.6864 24.2526 10.6694C24.4882 10.6525 24.7182 10.589 24.9292 10.4827C25.1402 10.3763 25.328 10.2292 25.4817 10.0498C25.6355 9.87041 25.7521 9.66231 25.825 9.43755L27.4312 4.43755C27.5022 4.2185 27.5212 3.98592 27.4866 3.75826C27.452 3.53061 27.3648 3.31415 27.232 3.12608C27.0991 2.93801 26.9242 2.7835 26.7212 2.67483C26.5182 2.56616 26.2927 2.50631 26.0625 2.50005C25.6699 2.50113 25.2816 2.58139 24.9208 2.73603C24.5599 2.89067 24.234 3.11652 23.9625 3.40005L22.75 4.65005C22.6566 4.74632 22.5362 4.81197 22.4047 4.83833C22.2732 4.8647 22.1368 4.85052 22.0135 4.79769C21.8902 4.74486 21.7859 4.65585 21.7143 4.54244C21.6427 4.42904 21.6072 4.29656 21.6125 4.16255C21.6262 3.94277 21.5947 3.72251 21.52 3.51535C21.4454 3.30819 21.329 3.11853 21.1783 2.95804C21.0275 2.79756 20.8454 2.66966 20.6433 2.58224C20.4412 2.49481 20.2233 2.44971 20.0031 2.44971C19.7829 2.44971 19.565 2.49481 19.3629 2.58224C19.1608 2.66966 18.9787 2.79756 18.828 2.95804C18.6772 3.11853 18.5608 3.30819 18.4862 3.51535C18.4115 3.72251 18.38 3.94277 18.3937 4.16255C18.399 4.29656 18.3635 4.42904 18.2919 4.54244C18.2203 4.65585 18.116 4.74486 17.9927 4.79769C17.8694 4.85052 17.733 4.8647 17.6015 4.83833C17.47 4.81197 17.3496 4.74632 17.2562 4.65005L16.0437 3.40005C15.7703 3.11558 15.4423 2.88923 15.0793 2.73458C14.7163 2.57994 14.3258 2.50016 13.9312 2.50005C13.7002 2.50632 13.4738 2.5668 13.2704 2.67662C13.067 2.78645 12.8923 2.94254 12.7603 3.1323C12.6283 3.32206 12.5428 3.54019 12.5106 3.76909C12.4784 3.99798 12.5005 4.23124 12.575 4.45005L14.1812 9.45005C14.2553 9.67369 14.3729 9.88047 14.5272 10.0585C14.6815 10.2365 14.8695 10.3823 15.0804 10.4875C15.2912 10.5926 15.5208 10.655 15.7558 10.6711C15.9909 10.6872 16.2268 10.6567 16.45 10.5813Z" fill="url(#paint1_linear)"/>
<defs>
<linearGradient id="paint0_linear" x1="29.5912" y1="15.1938" x2="12.3744" y2="36.1475" gradientUnits="userSpaceOnUse">
<stop stop-color="#19B9FB"/>
<stop offset="0.473971" stop-color="#1C99F7"/>
<stop offset="1" stop-color="#1F79F3"/>
</linearGradient>
<linearGradient id="paint1_linear" x1="24.8723" y1="3.33992" x2="20.0878" y2="12.3385" gradientUnits="userSpaceOnUse">
<stop stop-color="#19B9FB"/>
<stop offset="0.473971" stop-color="#1C99F7"/>
<stop offset="1" stop-color="#1F79F3"/>
</linearGradient>
</defs>
</svg>
