<svg width="32" height="33" viewBox="0 0 32 33" fill="none" xmlns="http://www.w3.org/2000/svg">
<path d="M22.2 27.3002C24.851 27.3002 27 25.1512 27 22.5002C27 19.8492 24.851 17.7002 22.2 17.7002C19.549 17.7002 17.4 19.8492 17.4 22.5002C17.4 25.1512 19.549 27.3002 22.2 27.3002ZM22.2 24.9002C20.8745 24.9002 19.8 23.8257 19.8 22.5002C19.8 21.1747 20.8745 20.1002 22.2 20.1002C23.5255 20.1002 24.6 21.1747 24.6 22.5002C24.6 23.8257 23.5255 24.9002 22.2 24.9002ZM22.2 23.7002C22.8627 23.7002 23.4 23.1629 23.4 22.5002C23.4 21.8375 22.8627 21.3002 22.2 21.3002C21.5373 21.3002 21 21.8375 21 22.5002C21 23.1629 21.5373 23.7002 22.2 23.7002Z" fill="#839AB2"/>
<path d="M7.79994 27.3002C10.4509 27.3002 12.5999 25.1512 12.5999 22.5002C12.5999 19.8492 10.4509 17.7002 7.79994 17.7002C5.14898 17.7002 2.99994 19.8492 2.99994 22.5002C2.99994 25.1512 5.14898 27.3002 7.79994 27.3002ZM7.79994 24.9002C6.47446 24.9002 5.39994 23.8257 5.39994 22.5002C5.39994 21.1747 6.47446 20.1002 7.79994 20.1002C9.12543 20.1002 10.1999 21.1747 10.1999 22.5002C10.1999 23.8257 9.12543 24.9002 7.79994 24.9002ZM7.79994 23.7002C8.46269 23.7002 8.99994 23.1629 8.99994 22.5002C8.99994 21.8375 8.46269 21.3002 7.79994 21.3002C7.1372 21.3002 6.59994 21.8375 6.59994 22.5002C6.59994 23.1629 7.1372 23.7002 7.79994 23.7002Z" fill="#839AB2"/>
<path d="M7.8 14.7001C6.51396 14.7001 5.59612 14.8312 4.53167 15.3634C4.23528 15.5116 4.11515 15.872 4.26334 16.1684C4.41153 16.4648 4.77194 16.5849 5.06833 16.4367C5.92388 16.0089 6.68603 15.9001 7.8 15.9001C11.4999 15.9001 14.4 18.7853 14.4 22.5001C14.4 22.8314 14.6686 23.1001 15 23.1001H16.2C16.5314 23.1001 16.8 22.8314 16.8 22.5001C16.8 19.441 19.3082 17.1001 22.2 17.1001C22.2931 17.1001 22.385 17.0784 22.4683 17.0367C24.1161 16.2128 24.4732 16.0406 24.9721 15.8387C25.064 15.8015 25.157 15.7653 25.2551 15.7285C25.5501 15.6179 25.7977 15.5333 26.5897 15.2693C26.8347 15.1876 27 14.9583 27 14.7001V13.5001C27 13.1687 26.7314 12.9001 26.4 12.9001C23.5384 12.9001 20.2973 13.7027 16.6732 15.3001H15.8425C14.3185 13.8755 11.9662 12.8384 9.73416 12.8384C9.46307 12.8384 9.22565 13.0202 9.15493 13.2819C9.09109 13.5181 8.98083 14.0088 8.82163 14.7637C8.48776 14.7217 8.1468 14.7001 7.8 14.7001Z" fill="#839AB2"/>
<path d="M11.9999 11.7C12.3313 11.7 12.5999 11.4314 12.5999 11.1C12.5999 10.7686 12.3313 10.5 11.9999 10.5H10.1999C9.91621 10.5 9.67127 10.6987 9.61281 10.9764L7.21281 22.3764C7.14455 22.7007 7.35208 23.0189 7.67634 23.0871C8.0006 23.1554 8.31881 22.9479 8.38707 22.6236L10.6868 11.7H11.9999Z" fill="#839AB2"/>
<path d="M21.9563 23.0484C22.2591 23.183 22.6137 23.0466 22.7483 22.7438C22.8829 22.441 22.7465 22.0864 22.4437 21.9519L17.0437 19.5519C16.7409 19.4173 16.3863 19.5537 16.2517 19.8565C16.1171 20.1593 16.2535 20.5139 16.5563 20.6484L21.9563 23.0484Z" fill="#839AB2"/>
<path fill-rule="evenodd" clip-rule="evenodd" d="M19 6.15234C19 5.96669 18.9298 5.78861 18.8047 5.65736L16.1381 2.85736C15.8777 2.58401 15.4556 2.58401 15.1953 2.85736C14.9349 3.13071 14.9349 3.57395 15.1953 3.8473L17.3905 6.15234L15.1953 8.45736C14.9349 8.73074 14.9349 9.17395 15.1953 9.44732C15.4556 9.72068 15.8777 9.72068 16.1381 9.44732L18.8047 6.64731C18.9298 6.51606 19 6.33798 19 6.15234Z" fill="#839AB2"/>
<path d="M21.1368 6.23047L21.5714 2.59766H25.7266V3.87695H22.9093L22.7481 5.28809C22.8653 5.21973 23.0183 5.15951 23.2071 5.10742C23.3992 5.05534 23.5863 5.0293 23.7686 5.0293C24.475 5.0293 25.017 5.23926 25.3946 5.65918C25.7755 6.07585 25.9659 6.66178 25.9659 7.41699C25.9659 7.87272 25.8634 8.28613 25.6583 8.65723C25.4565 9.02506 25.1716 9.30827 24.8038 9.50684C24.4359 9.7054 24.0014 9.80469 23.5001 9.80469C23.0541 9.80469 22.6358 9.71354 22.2452 9.53125C21.8546 9.3457 21.5486 9.09342 21.3272 8.77441C21.1059 8.45215 20.9968 8.08919 21.0001 7.68555H22.6505C22.6667 7.94596 22.7497 8.15267 22.8995 8.30566C23.0492 8.45866 23.2462 8.53516 23.4903 8.53516C24.0437 8.53516 24.3204 8.125 24.3204 7.30469C24.3204 6.54622 23.9818 6.16699 23.3048 6.16699C22.9206 6.16699 22.6342 6.29069 22.4454 6.53809L21.1368 6.23047Z" fill="#839AB2"/>
<path d="M31.7267 6.80176C31.7267 7.76204 31.5102 8.5026 31.0773 9.02344C30.6476 9.54427 30.0405 9.80469 29.256 9.80469C28.465 9.80469 27.853 9.54264 27.42 9.01855C26.9871 8.49447 26.7706 7.75553 26.7706 6.80176V5.50293C26.7706 4.54264 26.9855 3.80208 27.4151 3.28125C27.8481 2.76042 28.4584 2.5 29.2462 2.5C30.034 2.5 30.6443 2.76204 31.0773 3.28613C31.5102 3.81022 31.7267 4.55078 31.7267 5.50781V6.80176ZM30.0812 5.29297C30.0812 4.7819 30.0144 4.40104 29.881 4.15039C29.7475 3.89648 29.5359 3.76953 29.2462 3.76953C28.963 3.76953 28.7563 3.88672 28.6261 4.12109C28.4991 4.35547 28.4308 4.71029 28.421 5.18555V7.00195C28.421 7.53255 28.4877 7.92155 28.6212 8.16895C28.7547 8.41309 28.9663 8.53516 29.256 8.53516C29.5359 8.53516 29.7426 8.41634 29.8761 8.17871C30.0096 7.93783 30.0779 7.56185 30.0812 7.05078V5.29297Z" fill="#839AB2"/>
</svg>
