<svg width="66" height="66" viewBox="0 0 66 66" fill="none" xmlns="http://www.w3.org/2000/svg">
<path d="M45.7875 55.2749C51.2551 55.2749 55.6875 50.8425 55.6875 45.3749C55.6875 39.9072 51.2551 35.4749 45.7875 35.4749C40.3199 35.4749 35.8875 39.9072 35.8875 45.3749C35.8875 50.8425 40.3199 55.2749 45.7875 55.2749ZM45.7875 50.3249C43.0537 50.3249 40.8375 48.1087 40.8375 45.3749C40.8375 42.641 43.0537 40.4249 45.7875 40.4249C48.5213 40.4249 50.7375 42.641 50.7375 45.3749C50.7375 48.1087 48.5213 50.3249 45.7875 50.3249ZM45.7875 47.8499C47.1544 47.8499 48.2625 46.7418 48.2625 45.3749C48.2625 44.0079 47.1544 42.8999 45.7875 42.8999C44.4206 42.8999 43.3125 44.0079 43.3125 45.3749C43.3125 46.7418 44.4206 47.8499 45.7875 47.8499Z" fill="url(#paint0_linear)"/>
<path d="M16.0873 55.2749C21.5549 55.2749 25.9873 50.8425 25.9873 45.3749C25.9873 39.9072 21.5549 35.4749 16.0873 35.4749C10.6197 35.4749 6.1873 39.9072 6.1873 45.3749C6.1873 50.8425 10.6197 55.2749 16.0873 55.2749ZM16.0873 50.3249C13.3535 50.3249 11.1373 48.1087 11.1373 45.3749C11.1373 42.641 13.3535 40.4249 16.0873 40.4249C18.8211 40.4249 21.0373 42.641 21.0373 45.3749C21.0373 48.1087 18.8211 50.3249 16.0873 50.3249ZM16.0873 47.8499C17.4542 47.8499 18.5623 46.7418 18.5623 45.3749C18.5623 44.0079 17.4542 42.8999 16.0873 42.8999C14.7204 42.8999 13.6123 44.0079 13.6123 45.3749C13.6123 46.7418 14.7204 47.8499 16.0873 47.8499Z" fill="url(#paint1_linear)"/>
<path d="M16.0875 29.2877C13.435 29.2877 11.542 29.5581 9.34657 30.6559C8.73527 30.9615 8.48749 31.7048 8.79314 32.3161C9.09879 32.9274 9.84212 33.1752 10.4534 32.8696C12.218 31.9873 13.7899 31.7627 16.0875 31.7627C23.7185 31.7627 29.7 37.7136 29.7 45.3752C29.7 46.0587 30.254 46.6127 30.9375 46.6127H33.4125C34.0959 46.6127 34.65 46.0587 34.65 45.3752C34.65 39.066 39.8231 34.2377 45.7875 34.2377C45.9796 34.2377 46.1691 34.193 46.3409 34.1071C49.7395 32.4078 50.4761 32.0526 51.5049 31.6362C51.6945 31.5595 51.8864 31.4848 52.0887 31.4089C52.6972 31.1807 53.2077 31.0062 54.8413 30.4617C55.3467 30.2933 55.6875 29.8204 55.6875 29.2877V26.8127C55.6875 26.1293 55.1335 25.5752 54.45 25.5752C48.5479 25.5752 41.8632 27.2307 34.3884 30.5252H32.6751C29.5318 27.587 24.6804 25.448 20.0767 25.448C19.5176 25.448 19.0279 25.8229 18.8821 26.3627C18.7504 26.8499 18.523 27.8619 18.1946 29.419C17.506 29.3323 16.8028 29.2877 16.0875 29.2877Z" fill="url(#paint2_linear)"/>
<path d="M24.7498 23.1C25.4333 23.1 25.9873 22.546 25.9873 21.8625C25.9873 21.179 25.4333 20.625 24.7498 20.625H21.0373C20.4521 20.625 19.9469 21.0349 19.8263 21.6076L14.8763 45.1201C14.7355 45.7889 15.1636 46.4452 15.8324 46.586C16.5012 46.7268 17.1575 46.2987 17.2983 45.6299L22.0414 23.1H24.7498Z" fill="url(#paint3_linear)"/>
<path d="M45.2847 46.5057C45.9093 46.7832 46.6406 46.502 46.9182 45.8774C47.1958 45.2529 46.9145 44.5216 46.2899 44.244L35.1524 39.294C34.5279 39.0164 33.7966 39.2977 33.519 39.9222C33.2414 40.5468 33.5227 41.2781 34.1472 41.5557L45.2847 46.5057Z" fill="url(#paint4_linear)"/>
<path fill-rule="evenodd" clip-rule="evenodd" d="M30.9375 11.6579C30.9375 11.2751 31.0824 10.9078 31.3402 10.6371L36.8403 4.86205C37.3772 4.29826 38.2479 4.29826 38.7848 4.86205C39.3217 5.42583 39.3217 6.34002 38.7848 6.9038L34.257 11.6579L38.7848 16.4121C39.3217 16.9759 39.3217 17.89 38.7848 18.4538C38.2479 19.0177 37.3772 19.0177 36.8403 18.4538L31.3402 12.6788C31.0824 12.4081 30.9375 12.0408 30.9375 11.6579Z" fill="url(#paint5_linear)"/>
<path d="M43.5946 11.8191L44.4909 4.32642H53.0612V6.96497H47.2503L46.918 9.87543C47.1597 9.73444 47.4752 9.61023 47.8646 9.50281C48.2608 9.39539 48.6468 9.34167 49.0228 9.34167C50.4797 9.34167 51.5976 9.77472 52.3764 10.6408C53.1619 11.5002 53.5547 12.7087 53.5547 14.2663C53.5547 15.2062 53.3432 16.0589 52.9202 16.8243C52.5039 17.5829 51.9165 18.1671 51.1578 18.5766C50.3991 18.9861 49.5028 19.1909 48.4689 19.1909C47.5491 19.1909 46.6864 19.0029 45.8807 18.627C45.075 18.2443 44.4439 17.7239 43.9874 17.066C43.5308 16.4013 43.3059 15.6527 43.3126 14.8202H46.7166C46.7501 15.3573 46.9213 15.7836 47.2302 16.0992C47.539 16.4147 47.9452 16.5725 48.4488 16.5725C49.5901 16.5725 50.1608 15.7266 50.1608 14.0347C50.1608 12.4703 49.4625 11.6882 48.0661 11.6882C47.2738 11.6882 46.683 11.9433 46.2936 12.4536L43.5946 11.8191Z" fill="url(#paint6_linear)"/>
<path d="M65.4363 12.9974C65.4363 14.978 64.9898 16.5054 64.0968 17.5796C63.2106 18.6538 61.9585 19.1909 60.3404 19.1909C58.709 19.1909 57.4468 18.6505 56.5538 17.5695C55.6609 16.4886 55.2144 14.9645 55.2144 12.9974V10.3185C55.2144 8.33795 55.6575 6.81055 56.5437 5.73633C57.4367 4.66211 58.6955 4.125 60.3203 4.125C61.9451 4.125 63.2039 4.66547 64.0968 5.7464C64.9898 6.82733 65.4363 8.35474 65.4363 10.3286V12.9974ZM62.0424 9.8855C62.0424 8.83142 61.9048 8.0459 61.6295 7.52893C61.3542 7.00525 60.9178 6.74341 60.3203 6.74341C59.7362 6.74341 59.3099 6.98511 59.0413 7.46851C58.7795 7.9519 58.6385 8.68372 58.6183 9.66394V13.4103C58.6183 14.5046 58.756 15.3069 59.0312 15.8172C59.3065 16.3207 59.7429 16.5725 60.3404 16.5725C60.9178 16.5725 61.3442 16.3275 61.6194 15.8373C61.8947 15.3405 62.0357 14.5651 62.0424 13.511V9.8855Z" fill="url(#paint7_linear)"/>
<defs>
<linearGradient id="paint0_linear" x1="39.3589" y1="37.6177" x2="53.2446" y2="51.932" gradientUnits="userSpaceOnUse">
<stop stop-color="#19B9FB"/>
<stop offset="0.473971" stop-color="#1C99F7"/>
<stop offset="1" stop-color="#1F79F3"/>
</linearGradient>
<linearGradient id="paint1_linear" x1="9.65873" y1="37.6177" x2="23.5444" y2="51.932" gradientUnits="userSpaceOnUse">
<stop stop-color="#19B9FB"/>
<stop offset="0.473971" stop-color="#1C99F7"/>
<stop offset="1" stop-color="#1F79F3"/>
</linearGradient>
<linearGradient id="paint2_linear" x1="16.9069" y1="27.7386" x2="27.7976" y2="52.683" gradientUnits="userSpaceOnUse">
<stop stop-color="#19B9FB"/>
<stop offset="0.473971" stop-color="#1C99F7"/>
<stop offset="1" stop-color="#1F79F3"/>
</linearGradient>
<linearGradient id="paint3_linear" x1="16.8023" y1="23.4375" x2="30.2824" y2="29.3931" gradientUnits="userSpaceOnUse">
<stop stop-color="#19B9FB"/>
<stop offset="0.473971" stop-color="#1C99F7"/>
<stop offset="1" stop-color="#1F79F3"/>
</linearGradient>
<linearGradient id="paint4_linear" x1="35.7987" y1="39.9907" x2="40.1063" y2="48.1313" gradientUnits="userSpaceOnUse">
<stop stop-color="#19B9FB"/>
<stop offset="0.473971" stop-color="#1C99F7"/>
<stop offset="1" stop-color="#1F79F3"/>
</linearGradient>
<linearGradient id="paint5_linear" x1="37.7411" y1="17.3142" x2="28.8813" y2="12.0952" gradientUnits="userSpaceOnUse">
<stop stop-color="#19B9FB"/>
<stop offset="0.473971" stop-color="#1C99F7"/>
<stop offset="1" stop-color="#1F79F3"/>
</linearGradient>
<linearGradient id="paint6_linear" x1="61.5574" y1="5.75551" x2="51.8346" y2="20.4738" gradientUnits="userSpaceOnUse">
<stop stop-color="#19B9FB"/>
<stop offset="0.473971" stop-color="#1C99F7"/>
<stop offset="1" stop-color="#1F79F3"/>
</linearGradient>
<linearGradient id="paint7_linear" x1="61.5574" y1="5.75551" x2="51.8346" y2="20.4738" gradientUnits="userSpaceOnUse">
<stop stop-color="#19B9FB"/>
<stop offset="0.473971" stop-color="#1C99F7"/>
<stop offset="1" stop-color="#1F79F3"/>
</linearGradient>
</defs>
</svg>
