<svg width="25" height="24" viewBox="0 0 25 24" fill="none" xmlns="http://www.w3.org/2000/svg">
<path d="M20.114 16.0883C19.1336 14.796 18.5937 13.1442 18.5932 11.4352C18.5932 7.2931 16.589 4.80517 13.9422 4.09914C13.9454 4.03643 13.9454 3.97357 13.9422 3.91086C13.9422 3.47037 13.7888 3.04793 13.5158 2.73646C13.2427 2.42498 12.8724 2.25 12.4862 2.25C12.1001 2.25 11.7297 2.42498 11.4567 2.73646C11.1836 3.04793 11.0302 3.47037 11.0302 3.91086C11.0271 3.97357 11.0271 4.03643 11.0302 4.09914C8.43654 4.77155 6.37928 7.23259 6.37928 11.4352C6.37877 13.1442 5.83891 14.796 4.85844 16.0883C4.2277 16.9691 4.63444 18.5493 5.76623 18.5493H19.2652C20.4088 18.5493 20.7389 16.9153 20.114 16.0883ZM12.4862 21.75C12.9797 21.7487 13.4601 21.5681 13.8575 21.2344C14.255 20.9007 14.549 20.4313 14.6968 19.8941H10.2757C10.4235 20.4313 10.7175 20.9007 11.1149 21.2344C11.5124 21.5681 11.9927 21.7487 12.4862 21.75Z" fill="#839AB2"/>
</svg>
