<svg width="68" height="68" viewBox="0 0 68 68" fill="none" xmlns="http://www.w3.org/2000/svg">
<path d="M61.0544 40.9169L57.8987 25.3193C57.3172 22.4101 54.7636 20.3155 51.7969 20.3139H45.3615C43.4975 20.3139 41.9864 21.825 41.9864 23.689V37.4751C41.9864 38.5282 41.1327 39.3819 40.0796 39.3819C39.0266 39.3819 38.1728 38.5282 38.1728 37.4751V18.226C38.1728 17.2045 39.0009 16.3764 40.0224 16.3764H42.0532C43.0746 16.3851 43.9098 15.5642 43.9185 14.5427C43.9194 14.4352 43.911 14.3278 43.8932 14.2217C43.7133 13.3158 42.9099 12.6691 41.9864 12.6868H38.1728C36.0667 12.6868 34.3592 14.3942 34.3592 16.5004V18.4644C34.3592 19.4859 33.5312 20.314 32.5097 20.314H9.51366C8.49216 20.314 7.66406 21.142 7.66406 22.1635V48.7443C7.66406 49.8922 8.5946 50.8227 9.74247 50.8227H12.4311C12.4311 47.1369 15.419 44.1489 19.1049 44.1489C22.7907 44.1489 25.7787 47.1369 25.7787 50.8227H42.9398C42.9398 47.1369 45.9278 44.1489 49.6136 44.1489C53.2995 44.1489 56.2874 47.1369 56.2874 50.8227H58.6519C59.9788 50.8227 61.0544 49.7471 61.0544 48.4202V42.0324C61.0646 41.8991 61.0646 41.7652 61.0544 41.632C61.0995 41.3957 61.0995 41.1531 61.0544 40.9169L61.0544 40.9169ZM55.334 39.3819H51.0342C50.2497 39.3819 49.6136 38.7459 49.6136 37.9614V29.3808C49.6031 28.5963 50.2305 27.9518 51.015 27.9413C51.0214 27.9412 51.0278 27.9411 51.0342 27.9411H53.5321C54.1036 27.9407 54.5989 28.3369 54.7239 28.8945L56.5258 37.9042C56.668 38.563 56.2491 39.2123 55.5903 39.3545C55.5061 39.3727 55.4202 39.3819 55.334 39.3819V39.3819Z" fill="url(#paint0_linear)"/>
<path d="M19.1049 54.6363C21.211 54.6363 22.9185 52.9289 22.9185 50.8228C22.9185 48.7166 21.211 47.0092 19.1049 47.0092C16.9987 47.0092 15.2913 48.7166 15.2913 50.8228C15.2913 52.9289 16.9987 54.6363 19.1049 54.6363Z" fill="url(#paint1_linear)"/>
<path d="M49.6136 54.6363C51.7198 54.6363 53.4272 52.9289 53.4272 50.8228C53.4272 48.7166 51.7198 47.0092 49.6136 47.0092C47.5075 47.0092 45.8 48.7166 45.8 50.8228C45.8 52.9289 47.5075 54.6363 49.6136 54.6363Z" fill="url(#paint2_linear)"/>
<defs>
<linearGradient id="paint0_linear" x1="51.7217" y1="16.8137" x2="26.6748" y2="52.9842" gradientUnits="userSpaceOnUse">
<stop stop-color="#19B9FB"/>
<stop offset="0.473971" stop-color="#1C99F7"/>
<stop offset="1" stop-color="#1F79F3"/>
</linearGradient>
<linearGradient id="paint1_linear" x1="21.5812" y1="47.8346" x2="16.2323" y2="53.3486" gradientUnits="userSpaceOnUse">
<stop stop-color="#19B9FB"/>
<stop offset="0.473971" stop-color="#1C99F7"/>
<stop offset="1" stop-color="#1F79F3"/>
</linearGradient>
<linearGradient id="paint2_linear" x1="52.09" y1="47.8346" x2="46.7411" y2="53.3486" gradientUnits="userSpaceOnUse">
<stop stop-color="#19B9FB"/>
<stop offset="0.473971" stop-color="#1C99F7"/>
<stop offset="1" stop-color="#1F79F3"/>
</linearGradient>
</defs>
</svg>
