<svg width="68" height="68" viewBox="0 0 68 68" fill="none" xmlns="http://www.w3.org/2000/svg">
<path d="M63.7139 35.9367C63.7415 35.7419 63.7415 35.5442 63.7139 35.3494L60.0853 17.3847C59.5359 14.6524 57.1358 12.6867 54.3488 12.6864H48.0564C42.8014 12.6922 38.5445 16.9538 38.5445 22.2089V31.2069V31.207C38.5502 32.5565 37.4609 33.6552 36.1114 33.661C36.1079 33.661 36.1044 33.661 36.1009 33.661H8.76053C6.67542 33.661 4.98511 35.3513 4.98511 37.4364V45.4487C4.98511 48.2057 7.22009 50.4406 9.97706 50.4406H10.2288C10.2287 46.3863 13.5155 43.0995 17.5699 43.0995C21.6242 43.0995 24.911 46.3863 24.911 50.4406H43.7881C43.7881 46.3863 47.0748 43.0995 51.1292 43.0995C55.1836 43.0995 58.4703 46.3863 58.4703 50.4406H61.3648H61.3648C62.6622 50.4406 63.7139 49.3889 63.7139 48.0915V36.1045C63.7139 36.0416 63.7139 35.9892 63.7139 35.9367L63.7139 35.9367ZM57.065 33.661H49.7239C48.1798 33.6495 46.9342 32.3945 46.9343 30.8504V23.8868C46.9343 22.3346 48.1926 21.0762 49.7449 21.0762H55.2088C55.9849 21.0766 56.6526 21.6256 56.8028 22.3871L58.6696 31.7103C58.8491 32.59 58.2816 33.4486 57.402 33.6282C57.2911 33.6508 57.1782 33.6618 57.065 33.661L57.065 33.661Z" fill="url(#paint0_linear)"/>
<path d="M17.5699 54.6356C19.8867 54.6356 21.7648 52.7574 21.7648 50.4406C21.7648 48.1239 19.8867 46.2457 17.5699 46.2457C15.2531 46.2457 13.375 48.1239 13.375 50.4406C13.375 52.7574 15.2531 54.6356 17.5699 54.6356Z" fill="url(#paint1_linear)"/>
<path d="M51.1292 54.6356C53.446 54.6356 55.3242 52.7574 55.3242 50.4406C55.3242 48.1239 53.446 46.2457 51.1292 46.2457C48.8125 46.2457 46.9343 48.1239 46.9343 50.4406C46.9343 52.7574 48.8125 54.6356 51.1292 54.6356Z" fill="url(#paint2_linear)"/>
<defs>
<linearGradient id="paint0_linear" x1="53.4344" y1="16.7724" x2="29.6508" y2="54.9244" gradientUnits="userSpaceOnUse">
<stop stop-color="#19B9FB"/>
<stop offset="0.473971" stop-color="#1C99F7"/>
<stop offset="1" stop-color="#1F79F3"/>
</linearGradient>
<linearGradient id="paint1_linear" x1="20.2939" y1="47.1537" x2="14.4101" y2="53.2191" gradientUnits="userSpaceOnUse">
<stop stop-color="#19B9FB"/>
<stop offset="0.473971" stop-color="#1C99F7"/>
<stop offset="1" stop-color="#1F79F3"/>
</linearGradient>
<linearGradient id="paint2_linear" x1="53.8532" y1="47.1537" x2="47.9694" y2="53.2191" gradientUnits="userSpaceOnUse">
<stop stop-color="#19B9FB"/>
<stop offset="0.473971" stop-color="#1C99F7"/>
<stop offset="1" stop-color="#1F79F3"/>
</linearGradient>
</defs>
</svg>
