<svg width="32" height="33" viewBox="0 0 32 33" fill="none" xmlns="http://www.w3.org/2000/svg">
<path d="M28.7371 19.9594L27.2325 12.523C26.9553 11.136 25.7378 10.1373 24.3234 10.1366H21.2552C20.3665 10.1366 19.6461 10.857 19.6461 11.7457V18.3185C19.6461 18.8205 19.2391 19.2276 18.737 19.2276C18.2349 19.2276 17.8279 18.8205 17.8279 18.3185V9.1411C17.8279 8.65408 18.2227 8.25928 18.7097 8.25928H19.6779C20.1649 8.26344 20.5631 7.87202 20.5672 7.38502C20.5677 7.33376 20.5636 7.28256 20.5552 7.23199C20.4694 6.80007 20.0864 6.49173 19.6461 6.50017H17.8279C16.8237 6.50017 16.0097 7.3142 16.0097 8.31837V9.25474C16.0097 9.74176 15.6149 10.1366 15.1279 10.1366H4.16411C3.6771 10.1366 3.28229 10.5314 3.28229 11.0184V23.6912C3.28229 24.2385 3.72594 24.6822 4.27321 24.6822H5.55504C5.55504 22.9249 6.9796 21.5003 8.73689 21.5003C10.4942 21.5003 11.9187 22.9249 11.9187 24.6822H20.1006C20.1006 22.9249 21.5252 21.5003 23.2825 21.5003C25.0398 21.5003 26.4643 22.9249 26.4643 24.6822H27.5916C28.2242 24.6822 28.7371 24.1693 28.7371 23.5367V20.4912C28.7419 20.4277 28.7419 20.3639 28.7371 20.3003C28.7586 20.1877 28.7586 20.072 28.7371 19.9594L28.7371 19.9594ZM26.0098 19.2276H23.9598C23.5857 19.2276 23.2825 18.9243 23.2825 18.5503V14.4593C23.2775 14.0853 23.5766 13.778 23.9506 13.773C23.9537 13.773 23.9567 13.773 23.9598 13.773H25.1507C25.4232 13.7728 25.6593 13.9617 25.7189 14.2275L26.578 18.523C26.6458 18.8371 26.4461 19.1467 26.132 19.2145C26.0918 19.2231 26.0509 19.2275 26.0098 19.2276V19.2276Z" fill="#839AB2"/>
<path d="M8.7369 26.5002C9.74107 26.5002 10.5551 25.6861 10.5551 24.682C10.5551 23.6778 9.74107 22.8638 8.7369 22.8638C7.73274 22.8638 6.9187 23.6778 6.9187 24.682C6.9187 25.6861 7.73274 26.5002 8.7369 26.5002Z" fill="#839AB2"/>
<path d="M23.2825 26.5002C24.2867 26.5002 25.1007 25.6861 25.1007 24.682C25.1007 23.6778 24.2867 22.8638 23.2825 22.8638C22.2783 22.8638 21.4643 23.6778 21.4643 24.682C21.4643 25.6861 22.2783 26.5002 23.2825 26.5002Z" fill="#839AB2"/>
</svg>
