<svg width="68" height="68" viewBox="0 0 68 68" fill="none" xmlns="http://www.w3.org/2000/svg">
<path d="M51.1672 33.6611C49.6003 33.6634 48.2512 32.5557 47.9486 31.0183C46.1553 21.7402 38.9537 14.7839 30.459 14.7839C22.3418 14.7839 15.48 21.07 13.2714 29.6591C12.8006 31.6837 11.5752 33.4526 9.84518 34.6049H9.84518C7.98263 35.7661 6.8541 37.8089 6.8626 40.0038V45.6669C6.8626 47.3767 8.24866 48.7627 9.95844 48.7627H11.5819C11.5819 45.1138 14.5399 42.1558 18.1889 42.1558C21.8378 42.1558 24.7959 45.1138 24.7959 48.7627H41.7853V48.7627C41.7853 45.1138 44.7433 42.1558 48.3923 42.1558C52.0412 42.1558 54.9992 45.1138 54.9992 48.7627H55.726C57.931 48.7627 59.7185 46.9752 59.7185 44.7702V42.2124C59.7185 37.4896 55.89 33.6611 51.1672 33.6611V33.6611ZM27.6274 32.1981C27.6274 33.0061 26.9724 33.6611 26.1645 33.6611H18.085C17.2719 33.6577 16.6154 32.9957 16.6187 32.1826C16.6191 32.0992 16.6265 32.0159 16.6409 31.9338H16.6409C17.0655 29.549 17.9503 27.2696 19.246 25.223H19.246C20.4293 23.4104 22.4519 22.3227 24.6165 22.3348H25.9285C26.7677 22.2404 27.5245 22.8441 27.6189 23.6833C27.6232 23.7213 27.626 23.7595 27.6274 23.7978L27.6274 32.1981ZM42.8329 33.6611H32.8658C32.0578 33.6611 31.4029 33.0061 31.4029 32.1981V23.7978C31.4029 22.9898 32.0578 22.3348 32.8658 22.3348H36.4053C38.5095 22.3351 40.4705 23.4008 41.6154 25.1663C42.9417 27.2341 43.8463 29.5436 44.277 31.9621C44.4022 32.7656 43.8522 33.5184 43.0487 33.6436C42.9773 33.6547 42.9052 33.6605 42.8329 33.661L42.8329 33.6611Z" fill="url(#paint0_linear)"/>
<path d="M18.1888 52.5382C20.2739 52.5382 21.9642 50.8478 21.9642 48.7627C21.9642 46.6776 20.2739 44.9873 18.1888 44.9873C16.1036 44.9873 14.4133 46.6776 14.4133 48.7627C14.4133 50.8478 16.1036 52.5382 18.1888 52.5382Z" fill="url(#paint1_linear)"/>
<path d="M48.3921 52.5382C50.4772 52.5382 52.1675 50.8478 52.1675 48.7627C52.1675 46.6776 50.4772 44.9873 48.3921 44.9873C46.307 44.9873 44.6167 46.6776 44.6167 48.7627C44.6167 50.8478 46.307 52.5382 48.3921 52.5382Z" fill="url(#paint2_linear)"/>
<defs>
<linearGradient id="paint0_linear" x1="50.4516" y1="18.4613" x2="29.043" y2="52.7913" gradientUnits="userSpaceOnUse">
<stop stop-color="#19B9FB"/>
<stop offset="0.473971" stop-color="#1C99F7"/>
<stop offset="1" stop-color="#1F79F3"/>
</linearGradient>
<linearGradient id="paint1_linear" x1="20.6403" y1="45.8045" x2="15.3449" y2="51.2633" gradientUnits="userSpaceOnUse">
<stop stop-color="#19B9FB"/>
<stop offset="0.473971" stop-color="#1C99F7"/>
<stop offset="1" stop-color="#1F79F3"/>
</linearGradient>
<linearGradient id="paint2_linear" x1="50.8437" y1="45.8045" x2="45.5483" y2="51.2633" gradientUnits="userSpaceOnUse">
<stop stop-color="#19B9FB"/>
<stop offset="0.473971" stop-color="#1C99F7"/>
<stop offset="1" stop-color="#1F79F3"/>
</linearGradient>
</defs>
</svg>
