<svg width="100" height="115" viewBox="0 0 100 115" fill="none" xmlns="http://www.w3.org/2000/svg">
<path d="M0 4C0 1.79086 1.79086 0 4 0H100V115H4C1.79086 115 0 113.209 0 111V4Z" fill="#F6F7F9"/>
<path d="M62.4329 39.5H37.5671C36.0906 39.5 34.6746 40.0865 33.6306 41.1306C32.5865 42.1746 32 43.5906 32 45.0671V69.9329C32 71.4094 32.5865 72.8254 33.6306 73.8694C34.6746 74.9135 36.0906 75.5 37.5671 75.5H62.4329C63.9094 75.5 65.3254 74.9135 66.3694 73.8694C67.4135 72.8254 68 71.4094 68 69.9329V45.0671C68 43.5906 67.4135 42.1746 66.3694 41.1306C65.3254 40.0865 63.9094 39.5 62.4329 39.5ZM43.5714 47.2143C44.3343 47.2143 45.08 47.4405 45.7143 47.8643C46.3486 48.2882 46.843 48.8906 47.135 49.5954C47.4269 50.3002 47.5033 51.0757 47.3545 51.8239C47.2056 52.5721 46.8383 53.2594 46.2988 53.7988C45.7594 54.3383 45.0721 54.7056 44.3239 54.8545C43.5757 55.0033 42.8002 54.9269 42.0954 54.635C41.3906 54.343 40.7882 53.8486 40.3643 53.2143C39.9405 52.58 39.7143 51.8343 39.7143 51.0714C39.7143 50.0485 40.1207 49.0674 40.844 48.344C41.5674 47.6207 42.5485 47.2143 43.5714 47.2143ZM60.2857 65.2143C60.2857 65.8963 60.0148 66.5503 59.5326 67.0326C59.0503 67.5148 58.3963 67.7857 57.7143 67.7857H42.2857C41.6037 67.7857 40.9497 67.5148 40.4674 67.0326C39.9852 66.5503 39.7143 65.8963 39.7143 65.2143V63.2857C39.7181 62.8299 39.9004 62.3937 40.2221 62.0707L43.5714 58.7343C43.7333 58.5718 43.9256 58.4429 44.1375 58.3549C44.3493 58.2669 44.5764 58.2216 44.8057 58.2216C45.0351 58.2216 45.2622 58.2669 45.474 58.3549C45.6858 58.4429 45.8781 58.5718 46.04 58.7343L46.1686 58.8629C46.3304 59.0254 46.5228 59.1543 46.7346 59.2423C46.9464 59.3302 47.1735 59.3755 47.4029 59.3755C47.6322 59.3755 47.8593 59.3302 48.0711 59.2423C48.2829 59.1543 48.4753 59.0254 48.6371 58.8629L52.6164 54.8836C52.7784 54.7201 52.9712 54.5904 53.1836 54.5018C53.396 54.4133 53.6238 54.3677 53.8539 54.3677C54.084 54.3677 54.3119 54.4133 54.5243 54.5018C54.7367 54.5904 54.9295 54.7201 55.0914 54.8836L59.7521 59.5893C59.9184 59.7494 60.0512 59.941 60.1428 60.1529C60.2344 60.3648 60.283 60.5927 60.2857 60.8236V63.9286V65.2143Z" fill="#839AB2"/>
</svg>
