<svg width="24" height="24" viewBox="0 0 24 24" fill="none" xmlns="http://www.w3.org/2000/svg">
<path d="M19.5 4.095C19.5 3.40676 19.2266 2.74671 18.7399 2.26006C18.2533 1.7734 17.5932 1.5 16.905 1.5H7.095C6.40676 1.5 5.74671 1.7734 5.26006 2.26006C4.7734 2.74671 4.5 3.40676 4.5 4.095V19.905C4.5 20.5932 4.7734 21.2533 5.26006 21.7399C5.74671 22.2266 6.40676 22.5 7.095 22.5H16.905C17.5932 22.5 18.2533 22.2266 18.7399 21.7399C19.2266 21.2533 19.5 20.5932 19.5 19.905V4.095ZM13.125 20.3363C13.125 20.6117 13.0156 20.876 12.8208 21.0708C12.626 21.2656 12.3617 21.375 12.0862 21.375H11.91C11.6352 21.374 11.3719 21.2641 11.1779 21.0694C10.9839 20.8747 10.875 20.6111 10.875 20.3363V20.16C10.876 19.8852 10.9859 19.6219 11.1806 19.4279C11.3753 19.2339 11.6389 19.125 11.9138 19.125H12.09C12.3648 19.126 12.6281 19.2359 12.8221 19.4306C13.0161 19.6253 13.125 19.8889 13.125 20.1637V20.3363ZM17.25 16.5863C17.251 16.7716 17.2153 16.9552 17.1451 17.1267C17.0749 17.2982 16.9715 17.4541 16.8408 17.5855C16.7101 17.7168 16.5547 17.8211 16.3836 17.8922C16.2125 17.9634 16.0291 18 15.8438 18H8.15625C7.78329 18 7.4256 17.8518 7.16188 17.5881C6.89816 17.3244 6.75 16.9667 6.75 16.5938V5.955C6.75 5.58204 6.89816 5.22435 7.16188 4.96063C7.4256 4.69691 7.78329 4.54875 8.15625 4.54875H15.8438C16.2167 4.54875 16.5744 4.69691 16.8381 4.96063C17.1018 5.22435 17.25 5.58204 17.25 5.955V16.5863Z" fill="white"/>
<path d="M14.4863 12.1013L14.4188 12.0713C14.4188 12.0713 13.6688 11.6963 13.5263 11.6513C13.4378 11.6046 13.3351 11.593 13.2385 11.6187C13.1419 11.6444 13.0585 11.7056 13.005 11.79L12.705 12.165C12.679 12.1968 12.6432 12.2191 12.6032 12.2286C12.5633 12.2381 12.5213 12.2342 12.4838 12.2175C12.1578 12.0832 11.8573 11.8943 11.595 11.6588C11.3689 11.4532 11.171 11.2186 11.0063 10.9613C10.9819 10.9288 10.9688 10.8893 10.9688 10.8488C10.9688 10.8082 10.9819 10.7687 11.0063 10.7363L11.0738 10.6575L11.1338 10.5825C11.1903 10.5171 11.237 10.4438 11.2725 10.365V10.3313C11.3057 10.2696 11.323 10.2006 11.323 10.1306C11.323 10.0606 11.3057 9.99168 11.2725 9.93C11.25 9.88875 11.1075 9.555 11.0138 9.31125L10.9088 9C10.8075 8.76375 10.575 8.6475 10.215 8.655H10.1925C10.0145 8.66871 9.84645 8.7428 9.71625 8.865C9.54972 9.0174 9.41771 9.20366 9.3291 9.41128C9.24049 9.6189 9.19733 9.84307 9.2025 10.0688C9.23981 10.5875 9.43037 11.0835 9.75 11.4938V11.5125C10.3371 12.3573 11.1364 13.0325 12.0675 13.47C12.5388 13.6987 13.0464 13.8434 13.5675 13.8975C13.6953 13.8993 13.8224 13.8777 13.9425 13.8338C14.2735 13.6893 14.5337 13.4196 14.6663 13.0838C14.7758 12.841 14.7958 12.5673 14.7225 12.3113C14.6658 12.2198 14.5837 12.1469 14.4863 12.1013Z" fill="white"/>
</svg>
