<svg width="20" height="21" viewBox="0 0 20 21" fill="none" xmlns="http://www.w3.org/2000/svg">
<path fill-rule="evenodd" clip-rule="evenodd" d="M10.0001 4.66667C10.4603 4.66667 10.8334 5.03977 10.8334 5.50001V9.66667H15.0001C15.4603 9.66667 15.8334 10.0398 15.8334 10.5C15.8334 10.9603 15.4603 11.3333 15.0001 11.3333H10.8334V15.5C10.8334 15.9603 10.4603 16.3333 10.0001 16.3333C9.53983 16.3333 9.16675 15.9603 9.16675 15.5V11.3333H5.00008C4.53985 11.3333 4.16675 10.9603 4.16675 10.5C4.16675 10.0398 4.53984 9.66667 5.00008 9.66667H9.16675V5.50001C9.16675 5.03977 9.53983 4.66667 10.0001 4.66667Z" fill="white"/>
</svg>
