<svg width="40" height="40" viewBox="0 0 40 40" fill="none" xmlns="http://www.w3.org/2000/svg">
<path d="M31.0268 25.8036H26.3839C26.0634 25.8036 25.8036 26.0634 25.8036 26.3839V31.0268C25.8036 31.3473 26.0634 31.6072 26.3839 31.6072H31.0268C31.3473 31.6072 31.6071 31.3473 31.6071 31.0268V26.3839C31.6071 26.0634 31.3473 25.8036 31.0268 25.8036Z" fill="url(#paint0_linear)"/>
<path d="M25.2232 21.1608H21.7411C21.4206 21.1608 21.1607 21.4206 21.1607 21.7411V25.2233C21.1607 25.5438 21.4206 25.8036 21.7411 25.8036H25.2232C25.5437 25.8036 25.8036 25.5438 25.8036 25.2233V21.7411C25.8036 21.4206 25.5437 21.1608 25.2232 21.1608Z" fill="url(#paint1_linear)"/>
<path d="M35.6697 31.6072H32.1875C31.867 31.6072 31.6072 31.867 31.6072 32.1875V35.6697C31.6072 35.9902 31.867 36.25 32.1875 36.25H35.6697C35.9902 36.25 36.25 35.9902 36.25 35.6697V32.1875C36.25 31.867 35.9902 31.6072 35.6697 31.6072Z" fill="url(#paint2_linear)"/>
<path d="M35.6696 21.1608H33.3482C33.0277 21.1608 32.7678 21.4206 32.7678 21.7411V24.0626C32.7678 24.3831 33.0277 24.6429 33.3482 24.6429H35.6696C35.9902 24.6429 36.25 24.3831 36.25 24.0626V21.7411C36.25 21.4206 35.9902 21.1608 35.6696 21.1608Z" fill="url(#paint3_linear)"/>
<path d="M24.0625 32.7678H21.7411C21.4206 32.7678 21.1607 33.0277 21.1607 33.3482V35.6696C21.1607 35.9901 21.4206 36.25 21.7411 36.25H24.0625C24.383 36.25 24.6429 35.9901 24.6429 35.6696V33.3482C24.6429 33.0277 24.383 32.7678 24.0625 32.7678Z" fill="url(#paint4_linear)"/>
<path d="M33.9286 3.75H23.4821C22.8665 3.75 22.276 3.99458 21.8407 4.42993C21.4053 4.86528 21.1607 5.45575 21.1607 6.07143V16.5179C21.1607 17.1335 21.4053 17.724 21.8407 18.1594C22.276 18.5947 22.8665 18.8393 23.4821 18.8393H33.9286C34.5443 18.8393 35.1347 18.5947 35.5701 18.1594C36.0054 17.724 36.25 17.1335 36.25 16.5179V6.07143C36.25 5.45575 36.0054 4.86528 35.5701 4.42993C35.1347 3.99458 34.5443 3.75 33.9286 3.75ZM31.6072 13.6161C31.6072 13.77 31.546 13.9176 31.4372 14.0264C31.3283 14.1353 31.1807 14.1964 31.0268 14.1964H26.3839C26.23 14.1964 26.0824 14.1353 25.9736 14.0264C25.8647 13.9176 25.8036 13.77 25.8036 13.6161V8.97321C25.8036 8.81929 25.8647 8.67168 25.9736 8.56284C26.0824 8.454 26.23 8.39286 26.3839 8.39286H31.0268C31.1807 8.39286 31.3283 8.454 31.4372 8.56284C31.546 8.67168 31.6072 8.81929 31.6072 8.97321V13.6161Z" fill="url(#paint5_linear)"/>
<path d="M16.5179 3.75H6.07143C5.45575 3.75 4.86528 3.99458 4.42993 4.42993C3.99458 4.86528 3.75 5.45575 3.75 6.07143V16.5179C3.75 17.1335 3.99458 17.724 4.42993 18.1594C4.86528 18.5947 5.45575 18.8393 6.07143 18.8393H16.5179C17.1335 18.8393 17.724 18.5947 18.1594 18.1594C18.5947 17.724 18.8393 17.1335 18.8393 16.5179V6.07143C18.8393 5.45575 18.5947 4.86528 18.1594 4.42993C17.724 3.99458 17.1335 3.75 16.5179 3.75ZM14.1964 13.6161C14.1964 13.77 14.1353 13.9176 14.0264 14.0264C13.9176 14.1353 13.77 14.1964 13.6161 14.1964H8.97321C8.81929 14.1964 8.67168 14.1353 8.56284 14.0264C8.454 13.9176 8.39286 13.77 8.39286 13.6161V8.97321C8.39286 8.81929 8.454 8.67168 8.56284 8.56284C8.67168 8.454 8.81929 8.39286 8.97321 8.39286H13.6161C13.77 8.39286 13.9176 8.454 14.0264 8.56284C14.1353 8.67168 14.1964 8.81929 14.1964 8.97321V13.6161Z" fill="url(#paint6_linear)"/>
<path d="M16.5179 21.1608H6.07143C5.45575 21.1608 4.86528 21.4053 4.42993 21.8407C3.99458 22.2761 3.75 22.8665 3.75 23.4822V33.9286C3.75 34.5443 3.99458 35.1348 4.42993 35.5701C4.86528 36.0055 5.45575 36.2501 6.07143 36.2501H16.5179C17.1335 36.2501 17.724 36.0055 18.1594 35.5701C18.5947 35.1348 18.8393 34.5443 18.8393 33.9286V23.4822C18.8393 22.8665 18.5947 22.2761 18.1594 21.8407C17.724 21.4053 17.1335 21.1608 16.5179 21.1608ZM14.1964 31.0268C14.1964 31.1808 14.1353 31.3284 14.0264 31.4372C13.9176 31.5461 13.77 31.6072 13.6161 31.6072H8.97321C8.81929 31.6072 8.67168 31.5461 8.56284 31.4372C8.454 31.3284 8.39286 31.1808 8.39286 31.0268V26.384C8.39286 26.2301 8.454 26.0824 8.56284 25.9736C8.67168 25.8648 8.81929 25.8036 8.97321 25.8036H13.6161C13.77 25.8036 13.9176 25.8648 14.0264 25.9736C14.1353 26.0824 14.1964 26.2301 14.1964 26.384V31.0268Z" fill="url(#paint7_linear)"/>
<defs>
<linearGradient id="paint0_linear" x1="30.5896" y1="26.4317" x2="26.5196" y2="30.6273" gradientUnits="userSpaceOnUse">
<stop stop-color="#19B9FB"/>
<stop offset="0.473971" stop-color="#1C99F7"/>
<stop offset="1" stop-color="#1F79F3"/>
</linearGradient>
<linearGradient id="paint1_linear" x1="24.9896" y1="21.6632" x2="21.7335" y2="25.0198" gradientUnits="userSpaceOnUse">
<stop stop-color="#19B9FB"/>
<stop offset="0.473971" stop-color="#1C99F7"/>
<stop offset="1" stop-color="#1F79F3"/>
</linearGradient>
<linearGradient id="paint2_linear" x1="35.436" y1="32.1097" x2="32.18" y2="35.4662" gradientUnits="userSpaceOnUse">
<stop stop-color="#19B9FB"/>
<stop offset="0.473971" stop-color="#1C99F7"/>
<stop offset="1" stop-color="#1F79F3"/>
</linearGradient>
<linearGradient id="paint3_linear" x1="35.6395" y1="21.5376" x2="33.1975" y2="24.055" gradientUnits="userSpaceOnUse">
<stop stop-color="#19B9FB"/>
<stop offset="0.473971" stop-color="#1C99F7"/>
<stop offset="1" stop-color="#1F79F3"/>
</linearGradient>
<linearGradient id="paint4_linear" x1="24.0324" y1="33.1447" x2="21.5903" y2="35.6621" gradientUnits="userSpaceOnUse">
<stop stop-color="#19B9FB"/>
<stop offset="0.473971" stop-color="#1C99F7"/>
<stop offset="1" stop-color="#1F79F3"/>
</linearGradient>
<linearGradient id="paint5_linear" x1="33.6045" y1="5.38304" x2="23.0224" y2="16.2917" gradientUnits="userSpaceOnUse">
<stop stop-color="#19B9FB"/>
<stop offset="0.473971" stop-color="#1C99F7"/>
<stop offset="1" stop-color="#1F79F3"/>
</linearGradient>
<linearGradient id="paint6_linear" x1="16.1938" y1="5.38304" x2="5.61167" y2="16.2917" gradientUnits="userSpaceOnUse">
<stop stop-color="#19B9FB"/>
<stop offset="0.473971" stop-color="#1C99F7"/>
<stop offset="1" stop-color="#1F79F3"/>
</linearGradient>
<linearGradient id="paint7_linear" x1="16.1938" y1="22.7938" x2="5.61166" y2="33.7025" gradientUnits="userSpaceOnUse">
<stop stop-color="#19B9FB"/>
<stop offset="0.473971" stop-color="#1C99F7"/>
<stop offset="1" stop-color="#1F79F3"/>
</linearGradient>
</defs>
</svg>
