<svg width="32" height="32" viewBox="0 0 32 32" fill="none" xmlns="http://www.w3.org/2000/svg">
<path fill-rule="evenodd" clip-rule="evenodd" d="M28 16C28 19.1826 26.7357 22.2348 24.4853 24.4853C22.2348 26.7357 19.1826 28 16 28C12.8174 28 9.76516 26.7357 7.51472 24.4853C5.26428 22.2348 4 19.1826 4 16C4 12.8174 5.26428 9.76516 7.51472 7.51472C9.76516 5.26428 12.8174 4 16 4C19.1826 4 22.2348 5.26428 24.4853 7.51472C26.7357 9.76516 28 12.8174 28 16ZM12.244 13.0495C12.1956 13.0502 12.1477 13.0409 12.103 13.0224C12.0583 13.0039 12.0179 12.9765 11.9842 12.9418C11.9505 12.9071 11.9243 12.8659 11.907 12.8207C11.8898 12.7755 11.882 12.7273 11.884 12.679C12.025 10.1365 14.1055 9.25 16.0075 9.25C18.1015 9.25 20.0155 10.345 20.0155 12.61C20.0155 14.23 19.063 15.001 18.1495 15.6955C17.044 16.534 16.6345 16.8475 16.6345 17.9245V18.082C16.6345 18.1815 16.595 18.2768 16.5247 18.3472C16.4543 18.4175 16.359 18.457 16.2595 18.457H15.0445C14.9461 18.457 14.8516 18.4183 14.7814 18.3493C14.7113 18.2803 14.6711 18.1864 14.6695 18.088L14.6635 17.7625C14.6065 16.372 15.406 15.5155 16.4155 14.782C17.3005 14.116 17.863 13.678 17.863 12.7255C17.863 11.488 16.921 10.9735 15.892 10.9735C14.6875 10.9735 14.0125 11.6905 13.879 12.6745C13.852 12.88 13.687 13.0495 13.48 13.0495H12.2425H12.244ZM15.7315 22.714C14.8555 22.714 14.218 22.123 14.218 21.3235C14.218 20.4955 14.8555 19.9135 15.733 19.9135C16.6465 19.9135 17.275 20.4955 17.275 21.3235C17.275 22.123 16.645 22.714 15.7315 22.714Z" fill="#839AB2"/>
</svg>
