<svg width="20" height="21" viewBox="0 0 20 21" fill="none" xmlns="http://www.w3.org/2000/svg">
<path fill-rule="evenodd" clip-rule="evenodd" d="M3.33335 9.66667C3.33335 6.44501 5.94503 3.83334 9.16669 3.83334C12.3883 3.83334 15 6.44501 15 9.66667C15 11.2383 14.3785 12.6647 13.3679 13.7136C13.3393 13.7356 13.3119 13.7596 13.2858 13.7857C13.2596 13.8119 13.2356 13.8393 13.2137 13.8678C12.1647 14.8785 10.7383 15.5 9.16669 15.5C5.94503 15.5 3.33335 12.8883 3.33335 9.66667ZM13.8481 15.5266C12.565 16.5529 10.9375 17.1667 9.16669 17.1667C5.02455 17.1667 1.66669 13.8088 1.66669 9.66667C1.66669 5.52454 5.02455 2.16667 9.16669 2.16667C13.3088 2.16667 16.6667 5.52454 16.6667 9.66667C16.6667 11.4375 16.053 13.065 15.0266 14.3481L18.0893 17.4107C18.4147 17.7362 18.4147 18.2638 18.0893 18.5893C17.7638 18.9147 17.2362 18.9147 16.9108 18.5893L13.8481 15.5266Z" fill="#3A393A"/>
</svg>
