<svg width="186" height="186" viewBox="0 0 186 186" fill="none" xmlns="http://www.w3.org/2000/svg">
<path d="M157.236 0H28.7636C21.135 0 13.8189 3.03044 8.42465 8.42465C3.03044 13.8189 0 21.135 0 28.7636V157.236C0 164.865 3.03044 172.181 8.42465 177.575C13.8189 182.97 21.135 186 28.7636 186H157.236C164.865 186 172.181 182.97 177.575 177.575C182.97 172.181 186 164.865 186 157.236V28.7636C186 21.135 182.97 13.8189 177.575 8.42465C172.181 3.03044 164.865 0 157.236 0ZM59.7857 39.8571C63.7272 39.8571 67.5802 41.0259 70.8574 43.2157C74.1347 45.4055 76.689 48.5179 78.1973 52.1594C79.7057 55.8008 80.1003 59.8078 79.3314 63.6736C78.5624 67.5394 76.6644 71.0903 73.8773 73.8773C71.0903 76.6644 67.5394 78.5624 63.6736 79.3314C59.8078 80.1003 55.8008 79.7057 52.1594 78.1973C48.5179 76.689 45.4055 74.1347 43.2157 70.8574C41.0259 67.5802 39.8571 63.7272 39.8571 59.7857C39.8571 54.5003 41.9568 49.4314 45.6941 45.6941C49.4314 41.9568 54.5003 39.8571 59.7857 39.8571ZM146.143 132.857C146.143 136.381 144.743 139.76 142.252 142.252C139.76 144.743 136.381 146.143 132.857 146.143H53.1429C49.6193 146.143 46.24 144.743 43.7484 142.252C41.2569 139.76 39.8571 136.381 39.8571 132.857V122.893C39.8768 120.538 40.8188 118.284 42.4811 116.615L59.7857 99.3771C60.622 98.5376 61.6158 97.8714 62.7102 97.4169C63.8045 96.9623 64.9779 96.7283 66.1629 96.7283C67.3479 96.7283 68.5212 96.9623 69.6155 97.4169C70.7099 97.8714 71.7037 98.5376 72.54 99.3771L73.2043 100.041C74.0406 100.881 75.0344 101.547 76.1287 102.002C77.2231 102.456 78.3964 102.69 79.5814 102.69C80.7664 102.69 81.9398 102.456 83.0341 102.002C84.1285 101.547 85.1223 100.881 85.9586 100.041L106.518 79.4818C107.355 78.6372 108.351 77.9668 109.448 77.5093C110.546 77.0518 111.723 76.8163 112.912 76.8163C114.101 76.8163 115.278 77.0518 116.376 77.5093C117.473 77.9668 118.469 78.6372 119.306 79.4818L143.386 103.795C144.245 104.622 144.931 105.612 145.405 106.707C145.878 107.801 146.129 108.979 146.143 110.172V126.214V132.857Z" fill="#839AB2"/>
</svg>
