<svg width="25" height="24" viewBox="0 0 25 24" fill="none" xmlns="http://www.w3.org/2000/svg">
<path d="M13.0862 5.89499C14.54 6.00928 15.9053 6.63861 16.9365 7.66976C17.9676 8.70092 18.597 10.0662 18.7112 11.52C18.7181 11.653 18.777 11.7779 18.8752 11.8677C18.9735 11.9576 19.1032 12.0051 19.2362 12H19.75C19.8203 12.0008 19.8899 11.9869 19.9545 11.9591C20.019 11.9313 20.077 11.8903 20.1247 11.8387C20.1724 11.7871 20.2088 11.7261 20.2314 11.6595C20.2541 11.593 20.2625 11.5225 20.2562 11.4525C20.1244 9.61882 19.3353 7.89431 18.034 6.59573C16.7326 5.29716 15.0064 4.51174 13.1725 4.38374C13.1038 4.37755 13.0345 4.38558 12.969 4.40734C12.9035 4.4291 12.8432 4.46411 12.7918 4.5102C12.7405 4.55629 12.6991 4.61247 12.6704 4.67523C12.6417 4.73799 12.6263 4.80599 12.625 4.87499V5.37374C12.6207 5.50312 12.666 5.62926 12.7518 5.72621C12.8376 5.82316 12.9573 5.88356 13.0862 5.89499Z" fill="#839AB2"/>
<path d="M13.0638 9.26632C13.6388 9.35957 14.1699 9.63141 14.5818 10.0433C14.9937 10.4552 15.2655 10.9863 15.3588 11.5613C15.3794 11.6811 15.4406 11.79 15.5321 11.8699C15.6236 11.9498 15.7398 11.9958 15.8613 12.0001H16.375C16.4467 12.0023 16.518 11.9889 16.584 11.9609C16.65 11.9329 16.7091 11.8908 16.7572 11.8377C16.8054 11.7845 16.8414 11.7216 16.8628 11.6531C16.8842 11.5847 16.8905 11.5124 16.8813 11.4413C16.7563 10.5076 16.3277 9.64087 15.6616 8.97474C14.9955 8.30861 14.1287 7.88003 13.195 7.75507C13.118 7.74605 13.0399 7.75459 12.9666 7.78005C12.8934 7.80551 12.8268 7.84722 12.772 7.90206C12.7172 7.9569 12.6754 8.02345 12.65 8.09671C12.6245 8.16997 12.616 8.24804 12.625 8.32507V8.76757C12.6301 8.88833 12.6765 9.00369 12.7563 9.09444C12.8361 9.1852 12.9446 9.24586 13.0638 9.26632Z" fill="#839AB2"/>
<path d="M13.4687 11.1076C13.3694 11.0199 13.2398 10.9743 13.1075 10.9805C12.9751 10.9867 12.8503 11.0442 12.7596 11.1408C12.6689 11.2374 12.6193 11.3655 12.6214 11.4979C12.6235 11.6304 12.677 11.7569 12.7707 11.8506C12.8644 11.9443 12.9909 11.9979 13.1234 11.9999C13.2559 12.002 13.3839 11.9524 13.4805 11.8617C13.5771 11.771 13.6346 11.6462 13.6408 11.5139C13.647 11.3815 13.6014 11.2519 13.5137 11.1526L13.4912 11.1301L13.4687 11.1076Z" fill="#839AB2"/>
<path d="M4.285 13.215C5.45875 14.8426 8.65375 18.8138 13 20.5651C16.0675 21.7988 17.635 22.1738 18.6737 22.1738C19.1343 22.1736 19.5913 22.0924 20.0237 21.9338C21.0962 21.5588 22.2737 20.3026 22.7387 19.0538C23.1137 18.0376 23.2937 16.7176 22.9525 16.1476C22.7049 15.8191 22.3657 15.5712 21.9775 15.4351L21.73 15.3151C21.7037 15.3151 18.9212 13.9313 18.355 13.7325C17.98 13.5938 17.0612 13.2713 16.4012 14.2575L15.2762 15.63C15.1785 15.7499 15.044 15.8343 14.8936 15.8702C14.7432 15.9061 14.5851 15.8916 14.4437 15.8288C13.2269 15.3244 12.1047 14.6168 11.125 13.7363C10.2752 12.9625 9.53122 12.0799 8.9125 11.1113C8.82858 10.982 8.78938 10.8287 8.80089 10.6749C8.8124 10.5212 8.874 10.3754 8.97625 10.26L9.2275 9.96755L9.46 9.69005C9.67081 9.44516 9.84511 9.17107 9.9775 8.8763L10.045 8.74505C10.1618 8.51085 10.2191 8.2515 10.212 7.98989C10.2048 7.72828 10.1333 7.47247 10.0037 7.24505C9.925 7.0838 9.385 5.78255 9.02875 4.9238L8.52625 3.75005C8.15125 2.85755 7.27375 2.4263 5.90125 2.4563H5.8225C5.15674 2.50968 4.52878 2.7873 4.04125 3.2438C3.41627 3.81936 2.92186 4.52216 2.59132 5.30485C2.26078 6.08755 2.10177 6.93198 2.125 7.7813C2.125 10.2038 3.745 12.5025 4.23625 13.125L4.285 13.215Z" fill="#839AB2"/>
</svg>
