<svg width="48" height="49" viewBox="0 0 48 49" fill="none" xmlns="http://www.w3.org/2000/svg">
<path d="M21.39 11.3976C19.9911 11.8404 18.7269 12.6299 17.715 13.6926C17.4439 13.9794 17.2928 14.3592 17.2928 14.7538C17.2928 15.1485 17.4439 15.5282 17.715 15.8151C18.5261 16.6655 19.5013 17.3425 20.5816 17.805C21.6619 18.2676 22.8248 18.5061 24 18.5061C25.1752 18.5061 26.3381 18.2676 27.4184 17.805C28.4987 17.3425 29.474 16.6655 30.285 15.8151C30.5561 15.5282 30.7072 15.1485 30.7072 14.7538C30.7072 14.3592 30.5561 13.9794 30.285 13.6926C29.2731 12.6299 28.0089 11.8404 26.61 11.3976C26.5449 11.3741 26.4873 11.3334 26.4435 11.2797C26.3997 11.2261 26.3713 11.1616 26.3613 11.0931C26.3513 11.0245 26.36 10.9546 26.3867 10.8907C26.4133 10.8267 26.4568 10.7712 26.5125 10.7301C27.0878 10.2832 27.5311 9.68873 27.7952 9.00988C28.0594 8.33102 28.1345 7.59324 28.0125 6.87509C27.8298 5.88222 27.2841 4.99287 26.4817 4.38016C25.6794 3.76745 24.6777 3.47524 23.6718 3.56039C22.6658 3.64555 21.7275 4.10198 21.0396 4.84084C20.3516 5.57971 19.9632 6.54813 19.95 7.55759C19.9498 8.16898 20.0889 8.77238 20.3566 9.32205C20.6243 9.87172 21.0136 10.3532 21.495 10.7301C21.5505 10.7718 21.5937 10.8278 21.6198 10.8922C21.6459 10.9565 21.654 11.0268 21.6432 11.0954C21.6324 11.164 21.6031 11.2284 21.5585 11.2816C21.5139 11.3349 21.4557 11.375 21.39 11.3976Z" fill="#1B57C4"/>
<path d="M40.905 38.3976C40.8399 38.3741 40.7823 38.3334 40.7385 38.2797C40.6947 38.2261 40.6663 38.1616 40.6563 38.093C40.6463 38.0245 40.655 37.9546 40.6817 37.8906C40.7083 37.8267 40.7518 37.7712 40.8075 37.7301C41.3828 37.2832 41.8261 36.6887 42.0902 36.0099C42.3544 35.331 42.4295 34.5932 42.3075 33.8751C42.1248 32.8822 41.5791 31.9929 40.7767 31.3802C39.9744 30.7675 38.9727 30.4752 37.9668 30.5604C36.9608 30.6455 36.0225 31.102 35.3346 31.8408C34.6466 32.5797 34.2582 33.5481 34.245 34.5576C34.2448 35.169 34.3839 35.7724 34.6516 36.3221C34.9192 36.8717 35.3086 37.3532 35.79 37.7301C35.8457 37.7712 35.8892 37.8267 35.9158 37.8906C35.9425 37.9546 35.9512 38.0245 35.9412 38.093C35.9312 38.1616 35.9028 38.2261 35.859 38.2797C35.8152 38.3334 35.7576 38.3741 35.6925 38.3976C34.2936 38.8404 33.0294 39.6299 32.0175 40.6926C31.7464 40.9794 31.5953 41.3592 31.5953 41.7538C31.5953 42.1485 31.7464 42.5282 32.0175 42.8151C32.8285 43.6655 33.8038 44.3425 34.8841 44.805C35.9644 45.2676 37.1273 45.5061 38.3025 45.5061C39.4777 45.5061 40.6406 45.2676 41.7209 44.805C42.8012 44.3425 43.7764 43.6655 44.5875 42.8151C44.8586 42.5282 45.0097 42.1485 45.0097 41.7538C45.0097 41.3592 44.8586 40.9794 44.5875 40.6926C43.5737 39.6286 42.3068 38.839 40.905 38.3976Z" fill="#1B57C4"/>
<path d="M7.09502 38.3976C5.69608 38.8404 4.43188 39.6299 3.42002 40.6926C3.14891 40.9794 2.99786 41.3592 2.99786 41.7538C2.99786 42.1485 3.14891 42.5282 3.42002 42.8151C4.23107 43.6655 5.20628 44.3425 6.28659 44.805C7.3669 45.2676 8.52985 45.5061 9.70502 45.5061C10.8802 45.5061 12.0431 45.2676 13.1235 44.805C14.2038 44.3425 15.179 43.6655 15.99 42.8151C16.2611 42.5282 16.4122 42.1485 16.4122 41.7538C16.4122 41.3592 16.2611 40.9794 15.99 40.6926C14.9784 39.6297 13.7141 38.8401 12.315 38.3976C12.2499 38.3741 12.1923 38.3334 12.1485 38.2797C12.1047 38.2261 12.0763 38.1616 12.0663 38.093C12.0563 38.0245 12.0651 37.9546 12.0917 37.8906C12.1183 37.8267 12.1618 37.7712 12.2175 37.7301C12.7928 37.2832 13.2361 36.6887 13.5003 36.0099C13.7644 35.331 13.8395 34.5932 13.7175 33.8751C13.5348 32.8822 12.9891 31.9929 12.1868 31.3802C11.3844 30.7675 10.3827 30.4752 9.37679 30.5604C8.37084 30.6455 7.43256 31.102 6.74461 31.8408C6.05666 32.5797 5.66826 33.5481 5.65502 34.5576C5.65486 35.169 5.79389 35.7724 6.06158 36.3221C6.32927 36.8717 6.71859 37.3532 7.20002 37.7301C7.25556 37.7718 7.2987 37.8278 7.32481 37.8922C7.35092 37.9565 7.35901 38.0268 7.34822 38.0954C7.33743 38.164 7.30816 38.2284 7.26355 38.2816C7.21894 38.3349 7.16068 38.375 7.09502 38.3976Z" fill="#1B57C4"/>
<path d="M32.04 34.5577C32.2392 34.2144 32.2942 33.8062 32.193 33.4224C32.0918 33.0386 31.8426 32.7106 31.5 32.5102L25.5 29.0527V21.9502C25.5 21.5524 25.342 21.1708 25.0607 20.8895C24.7794 20.6082 24.3979 20.4502 24 20.4502C23.6022 20.4502 23.2207 20.6082 22.9394 20.8895C22.6581 21.1708 22.5 21.5524 22.5 21.9502V29.0527L16.5 32.5102C16.3208 32.604 16.1623 32.733 16.0342 32.8896C15.9062 33.0462 15.8111 33.2271 15.7547 33.4214C15.6983 33.6157 15.6819 33.8194 15.7063 34.0202C15.7307 34.221 15.7954 34.4148 15.8967 34.59C15.9979 34.7651 16.1335 34.918 16.2954 35.0394C16.4572 35.1607 16.642 35.2481 16.8384 35.2962C17.0349 35.3444 17.2391 35.3523 17.4388 35.3194C17.6384 35.2866 17.8293 35.2137 18 35.1052L24 31.6477L30 35.1052C30.3442 35.3037 30.7532 35.3576 31.137 35.255C31.5209 35.1523 31.8484 34.9015 32.0475 34.5577H32.04Z" fill="#1B57C4"/>
</svg>
