<svg width="41" height="40" viewBox="0 0 41 40" fill="none" xmlns="http://www.w3.org/2000/svg">
<path d="M18.325 9.08129C17.1592 9.45032 16.1057 10.1082 15.2625 10.9938C15.0366 11.2328 14.9107 11.5493 14.9107 11.8782C14.9107 12.2071 15.0366 12.5235 15.2625 12.7625C15.9384 13.4712 16.751 14.0354 17.6513 14.4208C18.5516 14.8063 19.5207 15.005 20.5 15.005C21.4793 15.005 22.4484 14.8063 23.3487 14.4208C24.2489 14.0354 25.0616 13.4712 25.7375 12.7625C25.9634 12.5235 26.0893 12.2071 26.0893 11.8782C26.0893 11.5493 25.9634 11.2328 25.7375 10.9938C24.8943 10.1082 23.8408 9.45032 22.675 9.08129C22.6207 9.06171 22.5727 9.02776 22.5362 8.98307C22.4997 8.93837 22.476 8.88461 22.4677 8.8275C22.4594 8.7704 22.4667 8.7121 22.4889 8.65883C22.5111 8.60557 22.5473 8.55932 22.5937 8.52504C23.0731 8.15266 23.4426 7.65724 23.6627 7.09153C23.8828 6.52581 23.9454 5.91099 23.8437 5.31254C23.6915 4.48514 23.2367 3.74401 22.5681 3.23343C21.8995 2.72284 21.0648 2.47932 20.2265 2.55029C19.3882 2.62125 18.6063 3.00161 18.033 3.61733C17.4597 4.23305 17.136 5.04006 17.125 5.88129C17.1249 6.39078 17.2407 6.89361 17.4638 7.35167C17.6869 7.80973 18.0113 8.21099 18.4125 8.52504C18.4588 8.55979 18.4947 8.60648 18.5165 8.66012C18.5382 8.71375 18.545 8.77229 18.536 8.82947C18.527 8.88664 18.5026 8.94029 18.4654 8.98465C18.4283 9.02902 18.3797 9.06242 18.325 9.08129Z" fill="url(#paint0_linear)"/>
<path d="M34.5875 31.5813C34.5332 31.5617 34.4852 31.5278 34.4487 31.4831C34.4122 31.4384 34.3885 31.3846 34.3802 31.3275C34.3719 31.2704 34.3792 31.2121 34.4014 31.1588C34.4236 31.1056 34.4598 31.0593 34.5062 31.025C34.9856 30.6527 35.3551 30.1572 35.5752 29.5915C35.7953 29.0258 35.8579 28.411 35.7562 27.8125C35.604 26.9851 35.1492 26.244 34.4806 25.7334C33.812 25.2228 32.9773 24.9793 32.139 25.0503C31.3007 25.1212 30.5188 25.5016 29.9455 26.1173C29.3722 26.733 29.0485 27.5401 29.0375 28.3813C29.0374 28.8908 29.1532 29.3936 29.3763 29.8517C29.5994 30.3097 29.9238 30.711 30.325 31.025C30.3714 31.0593 30.4076 31.1056 30.4298 31.1588C30.452 31.2121 30.4594 31.2704 30.451 31.3275C30.4427 31.3846 30.419 31.4384 30.3825 31.4831C30.346 31.5278 30.298 31.5617 30.2437 31.5813C29.078 31.9503 28.0245 32.6082 27.1812 33.4938C26.9553 33.7328 26.8294 34.0493 26.8294 34.3782C26.8294 34.7071 26.9553 35.0235 27.1812 35.2625C27.8571 35.9712 28.6698 36.5354 29.57 36.9208C30.4703 37.3063 31.4394 37.505 32.4187 37.505C33.398 37.505 34.3672 37.3063 35.2674 36.9208C36.1677 36.5354 36.9804 35.9712 37.6562 35.2625C37.8822 35.0235 38.008 34.7071 38.008 34.3782C38.008 34.0493 37.8822 33.7328 37.6562 33.4938C36.8114 32.6071 35.7556 31.9491 34.5875 31.5813Z" fill="url(#paint1_linear)"/>
<path d="M6.41251 31.5813C5.24673 31.9503 4.19323 32.6082 3.35001 33.4938C3.12409 33.7328 2.99821 34.0493 2.99821 34.3782C2.99821 34.7071 3.12409 35.0235 3.35001 35.2625C4.02589 35.9712 4.83856 36.5354 5.73882 36.9208C6.63908 37.3063 7.6082 37.505 8.58751 37.505C9.56682 37.505 10.5359 37.3063 11.4362 36.9208C12.3365 36.5354 13.1491 35.9712 13.825 35.2625C14.0509 35.0235 14.1768 34.7071 14.1768 34.3782C14.1768 34.0493 14.0509 33.7328 13.825 33.4938C12.982 32.608 11.9284 31.9501 10.7625 31.5813C10.7082 31.5617 10.6603 31.5278 10.6238 31.4831C10.5873 31.4384 10.5636 31.3846 10.5552 31.3275C10.5469 31.2704 10.5542 31.2121 10.5764 31.1588C10.5986 31.1056 10.6348 31.0593 10.6813 31.025C11.1607 30.6527 11.5301 30.1572 11.7502 29.5915C11.9703 29.0258 12.0329 28.411 11.9313 27.8125C11.779 26.9851 11.3243 26.244 10.6556 25.7334C9.98699 25.2228 9.15228 24.9793 8.31399 25.0503C7.47569 25.1212 6.6938 25.5016 6.12051 26.1173C5.54721 26.733 5.22355 27.5401 5.21251 28.3813C5.21238 28.8908 5.32824 29.3936 5.55131 29.8517C5.77439 30.3097 6.09882 30.711 6.50001 31.025C6.5463 31.0598 6.58225 31.1065 6.604 31.1601C6.62576 31.2137 6.63251 31.2723 6.62351 31.3295C6.61452 31.3866 6.59013 31.4403 6.55295 31.4847C6.51578 31.529 6.46723 31.5624 6.41251 31.5813Z" fill="url(#paint2_linear)"/>
<path d="M27.2 28.3812C27.366 28.0952 27.4118 27.755 27.3275 27.4352C27.2432 27.1154 27.0355 26.842 26.75 26.675L21.75 23.7937V17.875C21.75 17.5435 21.6183 17.2255 21.3839 16.9911C21.1495 16.7567 20.8315 16.625 20.5 16.625C20.1685 16.625 19.8506 16.7567 19.6161 16.9911C19.3817 17.2255 19.25 17.5435 19.25 17.875V23.7937L14.25 26.675C14.1006 26.7531 13.9686 26.8607 13.8619 26.9912C13.7551 27.1217 13.6759 27.2724 13.6289 27.4343C13.5819 27.5962 13.5682 27.766 13.5885 27.9333C13.6089 28.1007 13.6628 28.2622 13.7472 28.4082C13.8316 28.5541 13.9446 28.6815 14.0795 28.7826C14.2143 28.8838 14.3683 28.9566 14.532 28.9967C14.6958 29.0368 14.8659 29.0434 15.0323 29.016C15.1986 28.9887 15.3577 28.9279 15.5 28.8375L20.5 25.9562L25.5 28.8375C25.7869 29.003 26.1276 29.0478 26.4475 28.9623C26.7674 28.8768 27.0403 28.6678 27.2063 28.3812H27.2Z" fill="url(#paint3_linear)"/>
<defs>
<linearGradient id="paint0_linear" x1="24.1294" y1="3.88743" x2="15.4094" y2="11.9477" gradientUnits="userSpaceOnUse">
<stop stop-color="#19B9FB"/>
<stop offset="0.473971" stop-color="#1C99F7"/>
<stop offset="1" stop-color="#1F79F3"/>
</linearGradient>
<linearGradient id="paint1_linear" x1="36.0482" y1="26.3874" x2="27.3281" y2="34.4477" gradientUnits="userSpaceOnUse">
<stop stop-color="#19B9FB"/>
<stop offset="0.473971" stop-color="#1C99F7"/>
<stop offset="1" stop-color="#1F79F3"/>
</linearGradient>
<linearGradient id="paint2_linear" x1="12.2169" y1="26.3874" x2="3.49692" y2="34.4477" gradientUnits="userSpaceOnUse">
<stop stop-color="#19B9FB"/>
<stop offset="0.473971" stop-color="#1C99F7"/>
<stop offset="1" stop-color="#1F79F3"/>
</linearGradient>
<linearGradient id="paint3_linear" x1="24.9512" y1="17.9678" x2="16.3256" y2="27.8499" gradientUnits="userSpaceOnUse">
<stop stop-color="#19B9FB"/>
<stop offset="0.473971" stop-color="#1C99F7"/>
<stop offset="1" stop-color="#1F79F3"/>
</linearGradient>
</defs>
</svg>
