<svg width="32" height="32" viewBox="0 0 32 32" fill="none" xmlns="http://www.w3.org/2000/svg">
<path d="M14.26 7.26499C13.3274 7.56022 12.4846 8.08654 11.81 8.79499C11.6293 8.98622 11.5286 9.23937 11.5286 9.50249C11.5286 9.76562 11.6293 10.0188 11.81 10.21C12.3507 10.7769 13.0008 11.2283 13.721 11.5366C14.4413 11.845 15.2166 12.004 16 12.004C16.7835 12.004 17.5587 11.845 18.279 11.5366C18.9992 11.2283 19.6493 10.7769 20.19 10.21C20.3707 10.0188 20.4714 9.76562 20.4714 9.50249C20.4714 9.23937 20.3707 8.98622 20.19 8.79499C19.5154 8.08654 18.6726 7.56022 17.74 7.26499C17.6966 7.24933 17.6582 7.22218 17.629 7.18642C17.5998 7.15067 17.5808 7.10765 17.5742 7.06197C17.5675 7.01629 17.5734 6.96965 17.5911 6.92703C17.6089 6.88442 17.6379 6.84742 17.675 6.81999C18.0585 6.52209 18.3541 6.12576 18.5302 5.67319C18.7063 5.22062 18.7563 4.72876 18.675 4.24999C18.5532 3.58808 18.1894 2.99518 17.6545 2.58671C17.1196 2.17824 16.4518 1.98343 15.7812 2.0402C15.1105 2.09697 14.485 2.40125 14.0264 2.89383C13.5678 3.3864 13.3088 4.03202 13.3 4.70499C13.2999 5.11259 13.3926 5.51485 13.571 5.8813C13.7495 6.24775 14.009 6.56876 14.33 6.81999C14.367 6.8478 14.3958 6.88515 14.4132 6.92806C14.4306 6.97097 14.436 7.0178 14.4288 7.06354C14.4216 7.10928 14.4021 7.1522 14.3724 7.18769C14.3426 7.22318 14.3038 7.2499 14.26 7.26499Z" fill="white"/>
<path d="M27.2699 25.265C27.2265 25.2493 27.1881 25.2222 27.1589 25.1864C27.1297 25.1507 27.1108 25.1076 27.1041 25.062C27.0974 25.0163 27.1033 24.9696 27.121 24.927C27.1388 24.8844 27.1678 24.8474 27.2049 24.82C27.5884 24.5221 27.884 24.1258 28.0601 23.6732C28.2362 23.2206 28.2862 22.7288 28.2049 22.25C28.0831 21.5881 27.7193 20.9952 27.1844 20.5867C26.6495 20.1782 25.9817 19.9834 25.3111 20.0402C24.6405 20.097 24.0149 20.4013 23.5563 20.8938C23.0977 21.3864 22.8387 22.032 22.8299 22.705C22.8298 23.1126 22.9225 23.5149 23.101 23.8813C23.2794 24.2477 23.539 24.5688 23.8599 24.82C23.8971 24.8474 23.926 24.8844 23.9438 24.927C23.9616 24.9696 23.9674 25.0163 23.9607 25.062C23.9541 25.1076 23.9351 25.1507 23.9059 25.1864C23.8767 25.2222 23.8383 25.2493 23.7949 25.265C22.8623 25.5602 22.0195 26.0865 21.3449 26.795C21.1642 26.9862 21.0635 27.2394 21.0635 27.5025C21.0635 27.7656 21.1642 28.0188 21.3449 28.21C21.8856 28.7769 22.5358 29.2283 23.256 29.5366C23.9762 29.845 24.7515 30.004 25.5349 30.004C26.3184 30.004 27.0937 29.845 27.8139 29.5366C28.5341 29.2283 29.1842 28.7769 29.7249 28.21C29.9057 28.0188 30.0064 27.7656 30.0064 27.5025C30.0064 27.2394 29.9057 26.9862 29.7249 26.795C29.0491 26.0857 28.2044 25.5593 27.2699 25.265Z" fill="white"/>
<path d="M4.72997 25.265C3.79735 25.5602 2.95455 26.0865 2.27997 26.795C2.09924 26.9862 1.99854 27.2394 1.99854 27.5025C1.99854 27.7656 2.09924 28.0188 2.27997 28.21C2.82067 28.7769 3.47081 29.2283 4.19102 29.5366C4.91123 29.845 5.68653 30.004 6.46997 30.004C7.25342 30.004 8.02872 29.845 8.74893 29.5366C9.46914 29.2283 10.1193 28.7769 10.66 28.21C10.8407 28.0188 10.9414 27.7656 10.9414 27.5025C10.9414 27.2394 10.8407 26.9862 10.66 26.795C9.98554 26.0864 9.14269 25.56 8.20998 25.265C8.16654 25.2493 8.12818 25.2222 8.09898 25.1864C8.06977 25.1507 8.05082 25.1076 8.04415 25.062C8.03748 25.0163 8.04333 24.9696 8.06109 24.927C8.07885 24.8844 8.10784 24.8474 8.14498 24.82C8.52849 24.5221 8.82403 24.1258 9.00013 23.6732C9.17622 23.2206 9.22628 22.7288 9.14498 22.25C9.02315 21.5881 8.65937 20.9952 8.12446 20.5867C7.58956 20.1782 6.92179 19.9834 6.25115 20.0402C5.58052 20.097 4.955 20.4013 4.49637 20.8938C4.03773 21.3864 3.7788 22.032 3.76997 22.705C3.76987 23.1126 3.86255 23.5149 4.04101 23.8813C4.21947 24.2477 4.47902 24.5688 4.79997 24.82C4.837 24.8478 4.86576 24.8852 4.88317 24.9281C4.90057 24.971 4.90597 25.0178 4.89877 25.0635C4.89158 25.1093 4.87206 25.1522 4.84233 25.1877C4.81259 25.2232 4.77375 25.2499 4.72997 25.265Z" fill="white"/>
<path d="M21.36 22.705C21.4928 22.4761 21.5294 22.204 21.462 21.9481C21.3945 21.6923 21.2284 21.4736 21 21.34L17 19.035V14.3C17 14.0348 16.8946 13.7804 16.7071 13.5929C16.5195 13.4053 16.2652 13.3 16 13.3C15.7348 13.3 15.4804 13.4053 15.2929 13.5929C15.1053 13.7804 15 14.0348 15 14.3V19.035L11 21.34C10.8805 21.4025 10.7748 21.4885 10.6895 21.5929C10.6041 21.6973 10.5407 21.8179 10.5031 21.9475C10.4655 22.077 10.4545 22.2128 10.4708 22.3467C10.4871 22.4805 10.5302 22.6098 10.5977 22.7265C10.6652 22.8433 10.7556 22.9452 10.8635 23.0261C10.9714 23.107 11.0946 23.1653 11.2256 23.1974C11.3566 23.2294 11.4927 23.2347 11.6258 23.2128C11.7589 23.1909 11.8862 23.1423 12 23.07L16 20.765L20 23.07C20.2294 23.2024 20.5021 23.2383 20.758 23.1698C21.0139 23.1014 21.2322 22.9342 21.365 22.705H21.36Z" fill="white"/>
</svg>
