<svg width="16" height="16" viewBox="0 0 16 16" fill="none" xmlns="http://www.w3.org/2000/svg">
<path d="M11 5.75C11 7.59551 9.66469 9 8.125 9C6.58531 9 5.25 7.59551 5.25 5.75C5.25 3.90449 6.58531 2.5 8.125 2.5C9.66469 2.5 11 3.90449 11 5.75ZM8.125 10.75C9.42846 10.75 10.593 10.1661 11.4255 9.24667C11.6302 9.53013 11.75 9.87533 11.75 10.25V11.75C11.75 12.7162 10.9662 13.5 10 13.5H6.25C5.28377 13.5 4.5 12.7162 4.5 11.75V10.25C4.5 9.87533 4.61979 9.53013 4.82453 9.24667C5.65701 10.1661 6.82154 10.75 8.125 10.75Z" fill="white" stroke="white"/>
</svg>
