<svg width="20" height="21" viewBox="0 0 20 21" fill="none" xmlns="http://www.w3.org/2000/svg">
<path fill-rule="evenodd" clip-rule="evenodd" d="M7.29167 6.15973C7.29167 4.83654 8.36432 3.76389 9.6875 3.76389C11.0107 3.76389 12.0833 4.83654 12.0833 6.15973C12.0833 7.48291 11.0107 8.55556 9.6875 8.55556C8.36432 8.55556 7.29167 7.48291 7.29167 6.15973ZM9.6875 2.16667C7.4822 2.16667 5.69444 3.95442 5.69444 6.15973C5.69444 8.36503 7.4822 10.1528 9.6875 10.1528C11.8928 10.1528 13.6806 8.36503 13.6806 6.15973C13.6806 3.95442 11.8928 2.16667 9.6875 2.16667ZM6.49306 11.75C5.43403 11.75 4.41838 12.1707 3.66954 12.9195C2.9207 13.6684 2.5 14.684 2.5 15.7431V17.3403C2.5 17.7813 2.85755 18.1389 3.29861 18.1389H16.0764C16.5174 18.1389 16.875 17.7813 16.875 17.3403V15.7431C16.875 14.684 16.4543 13.6684 15.7055 12.9195C14.9566 12.1707 13.941 11.75 12.8819 11.75H6.49306ZM4.79895 14.049C5.24825 13.5996 5.85764 13.3472 6.49306 13.3472H12.8819C13.5174 13.3472 14.1267 13.5996 14.5761 14.049C15.0254 14.4983 15.2778 15.1076 15.2778 15.7431V16.5417H4.09722V15.7431C4.09722 15.1076 4.34964 14.4983 4.79895 14.049Z" fill="white"/>
</svg>
