<svg width="66" height="66" viewBox="0 0 66 66" fill="none" xmlns="http://www.w3.org/2000/svg">
<path d="M7.69675 40.0605C4.59404 40.0605 2.06279 41.8862 1.86157 45.9105H11.1536C10.3192 43.2276 9.7129 42.3758 9.33731 40.4898C8.81818 40.3382 8.26551 40.0605 7.69675 40.0605Z" fill="url(#paint0_linear)"/>
<path d="M7.57333 50.9035C8.79203 50.9035 9.77997 49.9156 9.77997 48.6969C9.77997 47.4782 8.79203 46.4902 7.57333 46.4902C6.35464 46.4902 5.3667 47.4782 5.3667 48.6969C5.3667 49.9156 6.35464 50.9035 7.57333 50.9035Z" fill="url(#paint1_linear)"/>
<path d="M11.7318 45.9106H3.41231C2.9294 47.2521 2.64502 47.6505 2.64502 48.6203C2.64502 51.3421 4.85166 53.5876 7.5734 53.5876C10.2925 53.5876 12.5004 51.3233 12.5004 48.6015C12.5004 47.6317 12.2161 47.2521 11.7318 45.9106ZM7.5734 50.9034C6.35405 50.9034 5.36676 49.9161 5.36676 48.6968C5.36676 47.4774 6.3527 46.4901 7.5734 46.4901C8.79006 46.4901 9.77869 47.4774 9.77869 48.6968C9.77869 49.9161 8.79006 50.9034 7.5734 50.9034Z" fill="url(#paint2_linear)"/>
<path d="M65.7179 32.4963H38.8895V12.375H34.8652V47.2519H46.325C46.9487 45.9105 49.099 43.1338 51.6598 43.1338C54.2166 43.1338 56.3709 45.9105 56.992 47.2519H65.7179V32.4963Z" fill="url(#paint3_linear)"/>
<path d="M51.6598 43.7683C48.9381 43.7683 46.7314 45.9749 46.7314 48.6967C46.7314 51.4184 48.9381 53.6251 51.6598 53.6251C54.3789 53.6251 56.5855 51.4184 56.5855 48.6967C56.5855 45.9749 54.3789 43.7683 51.6598 43.7683ZM51.6598 50.9033C50.4418 50.9033 49.4532 49.916 49.4532 48.6967C49.4532 47.4773 50.4405 46.4901 51.6598 46.4901C52.8751 46.4901 53.8638 47.4773 53.8638 48.6967C53.8638 49.916 52.8751 50.9033 51.6598 50.9033Z" fill="url(#paint4_linear)"/>
<path d="M25.7534 23.1064H18.4789C16.837 23.1064 16.0845 23.7369 16.0845 25.3788V37.1377C16.0845 38.7809 16.837 40.5449 18.4789 40.5449H19.5131H25.7534C27.394 40.5449 28.1573 38.7809 28.1573 37.1377V32.267V25.3788C28.1573 23.7369 27.394 23.1064 25.7534 23.1064Z" fill="url(#paint5_linear)"/>
<path d="M32.1819 16.9345C30.8404 16.7507 27.6237 16.7507 25.2025 16.7507C15.4798 16.7507 9.89551 24.6517 9.89551 34.3743C9.89551 40.2068 11.8017 45.9105 15.4852 48.5934H32.1819V16.9345ZM28.1576 37.1376C28.1576 38.7809 27.3943 40.5448 25.7538 40.5448H19.5135H18.4793C16.8374 40.5448 16.0848 38.7809 16.0848 37.1376V25.3787C16.0848 23.7368 16.8374 23.1064 18.4793 23.1064H25.7538C27.3943 23.1064 28.1576 23.7368 28.1576 25.3787V32.2669V37.1376Z" fill="url(#paint6_linear)"/>
<defs>
<linearGradient id="paint0_linear" x1="9.52447" y1="40.6937" x2="5.87305" y2="46.6726" gradientUnits="userSpaceOnUse">
<stop stop-color="#19B9FB"/>
<stop offset="0.473971" stop-color="#1C99F7"/>
<stop offset="1" stop-color="#1F79F3"/>
</linearGradient>
<linearGradient id="paint1_linear" x1="9.00622" y1="46.9679" x2="5.91119" y2="50.1584" gradientUnits="userSpaceOnUse">
<stop stop-color="#19B9FB"/>
<stop offset="0.473971" stop-color="#1C99F7"/>
<stop offset="1" stop-color="#1F79F3"/>
</linearGradient>
<linearGradient id="paint2_linear" x1="10.7725" y1="46.7415" x2="5.59095" y2="53.5987" gradientUnits="userSpaceOnUse">
<stop stop-color="#19B9FB"/>
<stop offset="0.473971" stop-color="#1C99F7"/>
<stop offset="1" stop-color="#1F79F3"/>
</linearGradient>
<linearGradient id="paint3_linear" x1="60.3087" y1="16.1496" x2="35.9419" y2="38.3701" gradientUnits="userSpaceOnUse">
<stop stop-color="#19B9FB"/>
<stop offset="0.473971" stop-color="#1C99F7"/>
<stop offset="1" stop-color="#1F79F3"/>
</linearGradient>
<linearGradient id="paint4_linear" x1="54.8579" y1="44.8351" x2="47.9453" y2="51.9591" gradientUnits="userSpaceOnUse">
<stop stop-color="#19B9FB"/>
<stop offset="0.473971" stop-color="#1C99F7"/>
<stop offset="1" stop-color="#1F79F3"/>
</linearGradient>
<linearGradient id="paint5_linear" x1="26.0406" y1="24.9937" x2="14.47" y2="33.2514" gradientUnits="userSpaceOnUse">
<stop stop-color="#19B9FB"/>
<stop offset="0.473971" stop-color="#1C99F7"/>
<stop offset="1" stop-color="#1F79F3"/>
</linearGradient>
<linearGradient id="paint6_linear" x1="28.2745" y1="20.1969" x2="7.07269" y2="35.4938" gradientUnits="userSpaceOnUse">
<stop stop-color="#19B9FB"/>
<stop offset="0.473971" stop-color="#1C99F7"/>
<stop offset="1" stop-color="#1F79F3"/>
</linearGradient>
</defs>
</svg>
